<svg id="Layer_1" data-name="Layer 1" xmlns="http://www.w3.org/2000/svg" viewBox="0 0 1920 5169.78"><defs><style>.cls-1{fill:#1f6661;}.cls-2{fill:#2c756e;}.cls-3{fill:#3d847b;}.cls-4{fill:#50968c;}.cls-5{fill:#6aada1;}.cls-6{fill:#82bcb1;}.cls-7{fill:#9fd1c7;}</style></defs><title>bg-desk</title><path class="cls-1" d="M0,176.67s54.65,42.43,105,0,105.34,0,105.34,0,42.89,33.88,96.78,0,96.74,0,96.74,0,47.68,29.73,96.05,0,96.05,0,96.05,0,40.08,28.35,96.74,0,96.74,0,96.74,0,39.39,28.35,96,0,96.74,0,96.74,0,43.53,27.66,96.74,0,96.74,0,96.74,0,49.75,29,96,0,96,0,96,0,39.67,28.63,96.79,0,96.32,0,96.32,0,42.62,27.78,96.32,0,96.33,0,96.33,0,47.73,31.19,96.32,0c0,0,34.48-21.66,70.09,0V1147.2H0Z" transform="translate(0 -157.82)"/><path class="cls-2" d="M0,212s54.65,40.88,105,0,105.34,0,105.34,0,42.89,32.64,96.78,0,96.74,0,96.74,0,47.68,28.64,96.05,0S596,212,596,212s40.08,27.31,96.74,0,96.74,0,96.74,0,39.39,27.31,96,0,96.74,0,96.74,0,43.53,26.65,96.74,0,96.74,0,96.74,0,49.75,28,96,0,96,0,96,0,39.67,27.59,96.79,0,96.32,0,96.32,0,42.62,26.77,96.32,0,96.33,0,96.33,0,47.73,30,96.32,0c0,0,34.48-20.88,70.09,0V1147.2H0Z" transform="translate(0 -157.82)"/><path class="cls-3" d="M0,245.54s54.65,39.41,105,0,105.34,0,105.34,0,42.89,31.47,96.78,0,96.74,0,96.74,0,47.68,27.62,96.05,0,96.05,0,96.05,0,40.08,26.33,96.74,0,96.74,0,96.74,0,39.39,26.33,96,0,96.74,0,96.74,0,43.53,25.69,96.74,0,96.74,0,96.74,0,49.75,27,96,0,96,0,96,0,39.67,26.6,96.79,0,96.32,0,96.32,0,42.62,25.81,96.32,0,96.33,0,96.33,0,47.73,29,96.32,0c0,0,34.48-20.13,70.09,0V1147.2H0Z" transform="translate(0 -157.82)"/><path class="cls-4" d="M0,281.57s54.65,37.84,105,0,105.34,0,105.34,0,42.89,30.21,96.78,0,96.74,0,96.74,0,47.68,26.51,96.05,0,96.05,0,96.05,0,40.08,25.28,96.74,0,96.74,0,96.74,0,39.39,25.28,96,0,96.74,0,96.74,0,43.53,24.66,96.74,0,96.74,0,96.74,0,49.75,25.9,96,0,96,0,96,0,39.67,25.54,96.79,0,96.32,0,96.32,0,42.62,24.78,96.32,0,96.33,0,96.33,0,47.73,27.82,96.32,0c0,0,34.48-19.32,70.09,0V1147.2H0Z" transform="translate(0 -157.82)"/><path class="cls-5" d="M0,319.74s54.65,36.17,105,0,105.34,0,105.34,0,42.89,28.88,96.78,0,96.74,0,96.74,0,47.68,25.35,96.05,0,96.05,0,96.05,0,40.08,24.17,96.74,0,96.74,0,96.74,0,39.39,24.17,96,0,96.74,0,96.74,0,43.53,23.58,96.74,0,96.74,0,96.74,0,49.75,24.76,96,0,96,0,96,0,39.67,24.41,96.79,0,96.32,0,96.32,0,42.62,23.69,96.32,0,96.33,0,96.33,0,47.73,26.59,96.32,0c0,0,34.48-18.46,70.09,0V1147.2H0Z" transform="translate(0 -157.82)"/><path class="cls-6" d="M0,354.94s54.65,34.63,105,0,105.34,0,105.34,0,42.89,27.65,96.78,0,96.74,0,96.74,0,47.68,24.27,96.05,0,96.05,0,96.05,0,40.08,23.14,96.74,0,96.74,0,96.74,0,39.39,23.14,96,0,96.74,0,96.74,0,43.53,22.58,96.74,0,96.74,0,96.74,0,49.75,23.7,96,0,96,0,96,0,39.67,23.37,96.79,0,96.32,0,96.32,0,42.62,22.68,96.32,0,96.33,0,96.33,0,47.73,25.46,96.32,0c0,0,34.48-17.68,70.09,0V1147.2H0Z" transform="translate(0 -157.82)"/><path class="cls-7" d="M0,390.31s54.65,33.08,105,0,105.34,0,105.34,0,42.89,26.41,96.78,0,96.74,0,96.74,0,47.68,23.18,96.05,0,96.05,0,96.05,0,40.08,22.1,96.74,0,96.74,0,96.74,0,39.39,22.1,96,0,96.74,0,96.74,0,43.53,21.56,96.74,0,96.74,0,96.74,0,49.75,22.64,96,0,96,0,96,0,39.67,22.32,96.79,0,96.32,0,96.32,0,42.62,21.66,96.32,0,96.33,0,96.33,0,47.73,24.32,96.32,0c0,0,34.48-16.9,70.09,0V5327.6H0Z" transform="translate(0 -157.82)"/></svg>