<?xml version="1.0" encoding="utf-8"?>
<!-- Generator: Adobe Illustrator 23.1.1, SVG Export Plug-In . SVG Version: 6.00 Build 0)  -->
<svg version="1.1" id="infographic" xmlns="http://www.w3.org/2000/svg" xmlns:xlink="http://www.w3.org/1999/xlink" x="0px"
	 y="0px" viewBox="0 0 612 1972.9" style="enable-background:new 0 0 612 1972.9;" xml:space="preserve">
<style type="text/css">
	.st0{fill:#002C3A;}
	.st1{fill:#C7E2B3;}
	.st2{fill:none;}
	.st3{font-family:'TheBoldFont';}
	.st4{font-size:24px;}
	.st5{fill:#008175;}
	.st6{fill:#B72025;}
	.st7{fill:#0F101E;}
	.st8{fill:#E8A697;}
	.st9{fill:#F1AA99;}
	.st10{fill:#11111E;}
	.st11{fill:#EC8683;}
	.st12{fill:#2D2133;}
	.st13{fill:#A7797B;}
	.st14{font-size:35px;}
	.st15{font-family:'MyriadPro-Regular';}
	.st16{font-size:12px;}
	.st17{fill:#02555F;}
	.st18{font-size:13px;}
	.st19{fill:#9ACD74;}
	.st20{fill:#42AD7A;}
	.st21{fill:#008175;stroke:#02555F;stroke-miterlimit:10;}
	.st22{fill:none;stroke:#02555F;stroke-miterlimit:10;}
	.st23{fill:#C7E2B3;stroke:#02555F;stroke-miterlimit:10;}
	.st24{fill:#C4C42F;stroke:#5E5624;stroke-miterlimit:10;}
	.st25{fill:#7F2921;}
	.st26{fill:#635E28;stroke:#5E5624;stroke-miterlimit:10;}
	.st27{fill:#B7A932;stroke:#0C5C51;stroke-miterlimit:10;}
	.st28{fill:#F6E033;stroke:#0C5C51;stroke-miterlimit:10;}
	.st29{fill:none;stroke:#7F7D70;stroke-width:3;stroke-miterlimit:10;}
	.st30{fill:#7F7D70;}
	.st31{fill:#F9AB8D;}
	.st32{fill:#F8FBEF;}
	.st33{fill:#893F1E;}
	.st34{fill:#F5987E;}
	.st35{fill:#21354E;}
	.st36{fill:#1B5A7B;}
	.st37{fill:#F9F9FA;}
	.st38{fill:#A9A2A3;}
	.st39{fill:#787677;}
	.st40{fill:#98D3E1;stroke:#888989;stroke-miterlimit:10;}
	.st41{fill:#FFFFFF;}
	.st42{font-family:'PressStart2P-Regular';}
	.st43{font-size:1.2234px;}
	.st44{font-size:11px;}
	.st45{font-size:15.7px;}
	.st46{font-size:39px;}
	.st47{font-size:9px;}
	.st48{font-size:8px;}
	.st49{fill:none;stroke:#42AD7A;stroke-miterlimit:10;}
	.st50{fill:#42AD7A;stroke:#42AD7A;stroke-miterlimit:10;}
	.st51{fill:none;stroke:#C7E2B3;stroke-miterlimit:10;}
	.st52{fill:#C7E2B3;stroke:#C7E2B3;stroke-miterlimit:10;}
	.st53{font-size:17px;}
	.st54{font-size:15px;}
</style>
<g id="footer">
	<rect id="sec_6" y="1668.3" class="st0" width="613" height="304.7"/>
	<ellipse class="st1" cx="306.5" cy="1663.8" rx="75.9" ry="75.8"/>
	<rect x="233.8" y="1684.5" class="st2" width="143.4" height="38.6"/>
	<text transform="matrix(1.0016 0 0 1 245.1069 1702.2031)" class="st0 st3 st4">More Info</text>
</g>
<g id="sec_5_1_">
	<rect id="sec_5" y="1363.6" class="st1" width="612" height="304.7"/>
	<g id="girl">
		<path class="st5" d="M505.8,1646c0,0-6,5.5-21.1,4.3c-15-1.2-16.3-2.8-16.3-2.8s-15.1-0.7-20.8,0c-5.7,0.7-11.1,0.3-11.1,0.3
			s-4.2,1.7-3.7-11.3s3.9-102.1,3.9-102.1s-9.5,0.6-7.9-11.7c0,0,4.6-14.5,4.8-34.4c0.2-19.9-1-24.2-1-24.2s0.7-4.6,7.5-6
			c0,0-1.8-19.7-2.7-22.4c-1-2.7-2.1-9.8-2.1-9.8s-1.6-21.8,18.1-27.9s30.9,4.5,30.9,4.5s15.5,11.8,14.3,38.6c0,0,0,7.2-2.5,11
			c0,0,22.1-0.7,22.9,15.1v16c0,0,12.2,12.1,6.4,19.4l-4.9,6.7c0,0,3.8,25.3,2.4,29.2c0,0-1.7,14.3-19.2,17.7l-0.1,20.1
			c0,0,1.7,31.8,6,61.1C509.5,1637.2,510.5,1643.5,505.8,1646z"/>
		<path class="st6" d="M437,1515.5c0,0-3.2-50.2-4.4-51.4c0,0,1.1-5.2,7.5-6c0,0,9.8,43.2,2.6,57.4
			C442.7,1515.5,442.1,1517.2,437,1515.5z"/>
		<path class="st6" d="M488.3,1516.2c0,0,6.4-46.6,19.3-54.3c0,0,2.3,0.9,2.1,6.3l9.4,14.8v-16c0,0,1-14.8-22.9-15.1
			c0,0-0.8,2.6,0.7,3.4c0,0-24,14.2-16.7,64.6h5.4L488.3,1516.2z"/>
		<path class="st6" d="M490.6,1529.6c0,0,4.1,5.3,13.3,7.5l-0.1,18.9c0,0,16.3-2.1,19.2-17.7c0,0,1.6-4.3-2.4-29.2
			c0,0-7,9.1-19.2,15.1l1.3,8.3c0,0-3.1,0.1-8.3-4.3l-2.4-0.4l-1.1,0.1L490.6,1529.6z"/>
		<path class="st7" d="M463.5,1647.3c0,0,2,16.9,1.5,20.9h-5.4c0,0-1.6-5.3-3.6,0h-27.8c0,0-1.4-8.4,7.6-8.7c9-0.3,10-4.1,10-4.1
			s7.2-3.6,4.6-8.2C450.4,1647.3,462,1646.9,463.5,1647.3z"/>
		<path class="st7" d="M502.1,1648.2c0,0,1.9,15.8,1.4,19.8H498c0,0-1.6-5.3-3.6,0h-27.8c0,0-1.4-8.4,7.6-8.7c9-0.3,10-4.1,10-4.1
			s5-1,5.3-4.8C489.6,1650.5,495.3,1650.5,502.1,1648.2z"/>
		<path class="st8" d="M439,1529.8c0,0-4.5,6-7.4-1c-2.9-7,2.2-10.7,2.2-10.7l3.3-2.6c0,0,5.6,0.9,5.8,1.6s-0.7,1.6-0.7,1.6
			s5.1,0.5,1,3.1c0,0,2.6,2.8-0.5,2.9c0,0,3.8,3.7-2.8,3.8C439.9,1528.5,438.1,1529.2,439,1529.8z"/>
		<path class="st8" d="M492,1527.9c0,0-2.4-6.9-6.4-8h-5.4c0,0-7.5,4.1-7.1,7.2c0,0-0.1,1.4,1.6,0.8c0,0-1.2,3.9,1,4.3
			c0,0,0,2.8,3.2,1.4c0,0,0.3,3.9,4.1,1.1c0,0,7.4-3.5,7.7-5.1s0.3-1.6,0.3-1.6L492,1527.9z"/>
		<path class="st6" d="M498.9,1489v14.2c0,0,3.1-4.6,7.3-7.1c0,0-6.4-6.9-6.4-8.8C499.8,1487.3,498.6,1487.8,498.9,1489z"/>
		<path class="st7" d="M445.4,1505c0,0,9.6,17.6,34.3,11.3l-0.6-6c0,0-16.5,8.3-33.7-9.2V1505z"/>
		<path class="st9" d="M480.4,1448c0,0-5.2,15.2-20,14.4c-14.8-0.8-20.6-19.5-20.6-19.5s-2.5-11.2,5.5-19.5c0,0,6.9-18.3,20.9-5.1
			s16.3,14.5,16.3,14.5S486,1439.2,480.4,1448z"/>
		<path class="st7" d="M470,1463.6c0,0-10.1,7.5-20-1.2c0,0-4.8-5-5.3-9.9c0,0,6.4,9.9,15.7,9.8c0,0,11.3,1.6,18.3-10.9
			C478.8,1451.5,477.8,1458.6,470,1463.6z"/>
		<ellipse class="st10" cx="447.8" cy="1435" rx="1.9" ry="3"/>
		<ellipse class="st10" cx="467.5" cy="1433.5" rx="1.9" ry="3"/>
		<ellipse class="st11" cx="469.7" cy="1443.1" rx="4.9" ry="2.8"/>
		<ellipse class="st11" cx="446.8" cy="1444.7" rx="4.9" ry="2.8"/>
		<path class="st12" d="M450.8,1428.4c0.2,0.2,0.1,0.6-0.2,0.6c-1.4,0.2-4.6,0.6-6.7,1.5c-2.7,1.1,1.1-2.3,1.1-2.3
			S448.7,1426.2,450.8,1428.4z"/>
		<path class="st12" d="M464.5,1427c-0.1,0.3,0.1,0.6,0.4,0.5c1.4-0.1,4.7-0.4,6.9-0.1c2.9,0.4-1.6-2-1.6-2S466.1,1424.3,464.5,1427
			z"/>
		<path class="st13" d="M455.5,1435.7c0,0,2-6.4-1.8-0.5c-2.5,3.9-1.7,7.3-0.9,9.2c0.6,1.4,1.9,2.3,3.4,2.3c0.9,0,1.9-0.3,2.7-1.4
			c1.4-1.9-0.4-1.4-1.7-1c-1.5,0.6-3.3-0.4-3.4-2C453.7,1441,454.1,1438.9,455.5,1435.7z"/>
		<path class="st13" d="M458.3,1453.6c0,0-6.3-1.2-1.6-1.9c0.9-0.1,1.7-0.1,2.6,0.1c1.4,0.3,4,0.3,6.8-2.5c2.2-2.2,2.4-1.5,2.1-0.5
			c-0.4,1.6-1.4,3-2.9,3.8C463.9,1453.5,461.6,1454.2,458.3,1453.6z"/>
	</g>
	<rect x="-39.3" y="1391.9" class="st2" width="408.2" height="82.3"/>
	<text transform="matrix(1 0 0 1 26.3163 1417.7722)" class="st5 st3 st14">EDUCATING GIRLS</text>
	<rect x="27" y="1445.3" class="st2" width="304.3" height="204"/>
	<text transform="matrix(1 0 0 1 27.0449 1453.791)"><tspan x="0" y="0" class="st5 st15 st16">Educated girls realize higher wages and greater upward </tspan><tspan x="0" y="14.4" class="st5 st15 st16">mobility, contributing to economic growth. Their rates of </tspan><tspan x="0" y="28.8" class="st5 st15 st16">maternal mortality drop, as do mortality rates of their babies. </tspan><tspan x="0" y="43.2" class="st5 st15 st16">They are less likely to marry as children or against their will.  </tspan><tspan x="0" y="57.6" class="st5 st15 st16">Their agricultural plots are more productive and their fami</tspan><tspan x="289.5" y="57.6" class="st5 st15 st16">-</tspan><tspan x="0" y="72" class="st5 st15 st16">lies better nourished.</tspan><tspan x="0" y="102" class="st5 st15 st16">By closing an annual financing gap of </tspan><tspan x="188.8" y="102" class="st17 st3 st18">$39 billion</tspan><tspan x="259.2" y="102" class="st5 st15 st16">, unive</tspan><tspan x="296.1" y="102" class="st5 st15 st16">-</tspan><tspan x="0" y="116.4" class="st5 st15 st16">sal education in low- and lower-middle-income countries </tspan><tspan x="0" y="132" class="st5 st15 st16">can be achieved. It could result in </tspan><tspan x="168.7" y="132" class="st17 st3 st18">51.48 gigatons</tspan><tspan x="262.9" y="132" class="st5 st15 st16"> of </tspan><tspan x="0" y="147.6" class="st5 st15 st16">emissions reduced by </tspan><tspan x="110.7" y="147.6" class="st17 st3 st18">2050</tspan><tspan x="145.2" y="147.6" class="st5 st15 st16">. </tspan></text>
</g>
<g id="sec_4">
	<polygon class="st19" points="543.2,1430.1 496,1390.1 514.6,1390.1 514.6,1361.8 569.3,1361.8 568.9,1390.3 587.5,1390.2 	"/>
	<rect y="1074.1" class="st19" width="611.7" height="289.5"/>
	<rect x="238.9" y="1117" class="st2" width="377.3" height="60.6"/>
	<text transform="matrix(1 0 0 1 276.9334 1142.8584)" class="st5 st3 st14">TROPICAL FORESTS</text>
	<g id="trees">
		<path class="st0" d="M210.7,1153.1c0,0,3.3-0.1,2.8-2c-0.5-1.9,1.8-3.4,1.8-3.4s0.9,4.9,2.7,3.2s4.8,0,4.8,0s-2.4,1.5-0.5,1.9
			c1.9,0.5,4.4,4.1,4.4,4.1c0.9,0.4,1.1,2.6,1.1,2.6s-3.6-0.9-3-0.3c0.7,0.6,0.2,1.6,0.2,1.6l-1.6-0.7c-3.2-1-4.5,1.3-4.5,1.3
			l1.4,2.3l-2.5,0.6c2.6,0.2,4.7,3.5,4.7,3.5s-0.5-0.3-3.1,0c-2.6,0.3-1.6,1.2-1.6,1.2c4.4,0.1,5.8,4.5,5.8,4.5l-5.8-0.7
			c0.8,0.2,2.1,1.7,2.1,1.7h-3.9c0,0-0.1,2.3,0.4,1.8c0.5-0.5,2.5-1.2,2.5-1.2l-0.3,0.9l0.1,1l1.6,0.5l1.5,0.1l0.3-2.7
			c1.6,0.1,2.9,3.4,2.9,3.4s-0.3,3.1,0.4,1.9c0.7-1.2,2.7-1.9,2.7-1.9s-0.1,1.5,0.1,3.6c0.2,2.1,1.8,1.4,1.8,1.4
			c1.3-2.3,4.8-2,4.8-2c-0.7,0.6-1,2.9-1,2.9c2.3,0.1,2.3,1.4,2.3,1.4l-2.4,2.9c2.7-0.1,3.3,3.6,3.3,3.6h-1.9
			c1.2,2.2,0.7,4.8,0.7,4.8l-3.3-1.3v1.6c0,0-0.4,0.1-1.7-1c-1.3-1-1.8-0.5-1.8-0.5l0.9,1.7c0,0-1.5-0.8-3.5-0.5s-1.1,1.1-1.1,1.1
			c5.4,1,4.5,5.3,4.5,5.3l-5.1-2.3l0.8,1.4c1.1,1,0,1.2,0,1.2l-3.7-1.6v4.2l-1-0.7l-1.6,2.6c0,0,1.9,2.9,1.1,2.7
			c-0.8-0.1-2.1-1.1-2.1-1.1c-2.2,3.7-6.8,4.3-6.8,4.3v1.5c-0.4-0.4-3.1-1.5-3.1-1.5v3.9c0,0-3.4-3.1-3.6-2c-0.2,1.1-4,2.6-4,2.6
			h-2.6v4.8c-2.7-0.1-4.7-3.4-4.7-3.4c-0.7,0.8-2.5,1.2-2.5,1.2l-1.1,23.2c0,0-2,2.8-2.4,3.1c-0.3,0.3-0.4,2-0.4,2
			c-1.8,0.9-2.3,3.9-2.3,3.9s-0.8,3-1.1,4.4c-0.2,1.3-2.8,4.7-2.8,4.7c1,1.7,1.8,5.2,1.8,5.2l5.9,95.6h-20.7l1.7-102l-0.5-9.7
			c0,0-6.2-3.9-7.2-10.4c-1-6.5-1.7-17-1.7-17s-1.1-6-1.6-6.5c0,0-3,7.6-10,10.3l-0.7,1.4l-2.6-0.1c0,0-0.5,1.5,0,2.6
			c0.5,1.2-3.4-0.9-3.4-0.9s-2.4,3.4-6.3,3.6c0,0-0.3,2.8,0.8,4.1l-1.6,0.1l2.1,124.5h-11.9l2.1-114.2c0,0-3.2,7.9-15.7,13.5
			c-12.5,5.6-14.5,10.5-14.5,10.5s-1,6.1-1.3,10.6l0.9,79.9l-4,0l-1-80.5c0,0-11-8.2-14-26.4c0,0-6.3,2.9-9.1-11.5l-2.3-8.5l-2,2.1
			v-6.6l-8.8,0.3c0,0,0.7-3.1,2.8-3.5c0,0-2.4-1-2.8-3.1l-5.7-0.1l-2.2,1.3v-2.2l-2.4-0.3c0,0,1.4-1.7,3.8-2.5c0,0-1.8-1-3.8,0.4
			c-2,1.4-1.1-2-1.1-2l0.4-0.6l-2.4-0.1l1.7-3.6l-7.9,0.5c0,0,1-3,3.4-3.7c2.3-0.7-2-1-2-1s-1.9,2-1.8,3c0,1.1-2.4-3.4-2.4-3.4
			s-2.2-3.9-1.2-6.3c1.1-2.4-1.3,0.1-1.3,0.1s-1.3-1.7-0.4-5.2l0.6-1.8c0,0,0.9,0.3,0.3-1.4c-0.6-1.7,1.2-1.4,1.2-1.4l-1.3-2.8
			c0,0,0.6-0.8,2.2-0.1c1.6,0.7,0.7-1.2,0.7-1.2l-1-5c0,0,3-0.6,4.8,2.3c1.8,2.8,2.3-2,2.3-2s-0.7-3.3-2.6-2.6l0.2-2.6l2.5-0.9
			c0,0-2.6-1.1-2.3-2.2l3.5-0.5c0,0,2.9-5.2,1.4-6.3c0,0,2.5,0.4,3.2,1.7s3-2,3-2l1.3-1.8c0,0,2,0,3,2.3s2.2,1.1,2.2,1.1
			s0.1,2.9,2.5,3.2c2.4,0.3,2.5-2.4,2.5-2.4s0.6,1.4,1.9,1.4s1.3-2.2,1.3-2.2l3,4.5l1.7-1.7c0,0,2.8-1,4.8,0.7
			c2,1.7,2.8-3.9,2.8-3.9l-3.3-2.4c0,0,2.6-1.6,4.5-1.4c1.9,0.1,1-4.5,1-4.5l2.3,0.2l-0.3-2.4l1.2,0.6l5.7,1.7c0,0-2.6-4.5-1.9-5.2
			h4.1l-0.8-1.7c0,0,1.1-0.6,2.7,0.6c1.6,1.3,2.1,0.1,2.1,0.1l-0.5-3.5c0,0,2.9,1.2,2.8,3l3.2-0.9c0,0,0.5-1,0.2-1.8
			c0,0,1.7-0.1,1.8,1.8s3.7,1.8,3.7,1.8s1.7-2.1,1.8-3.3c0.1-1.1,0.3-2.1,0.3-2.1s2.3,2.8,2.5,5.7s1.8-1.3,1.8-1.3l1-0.6l0.6,1.6
			l0.3,3.9c0,0,0.6-0.1,1.6-1.9s2.1-2.7,2.1-2.7l0.1,6.4c0,0-0.8,0.9-0.2,0.9s1.9-0.8,1.9-0.8s0.9,1.3-0.4,2.4c0,0,3.3,1.9,3.1,4.1
			c0,0,1.1,0.9,1.1-1.2l-0.3-1.8c0,0,4.3,0.4,4.6,2.6c0.4,2.3,1.7-2.7,1.7-2.7s2.4,1.6,2.8,3.5c0,0,1.1,0.9,1.9-1.9
			c0.8-2.9,3.2-2.9,3.2-2.9s0.5,2.6,1.6,2.8c1.1,0.2,1.5-0.3,1.5-0.3v3.3c0,0,1.1,0.5,1.1-0.8s0.2-1.9,0.2-1.9l2,1.9
			c0,0,0.7-2-0.1-2.1c-0.8-0.2-2.8-0.5-2.8-0.5l0.1-1.1l-1.4-0.2c0,0,0.7-2.1,1.8-2.1s-0.6-0.6-0.6-0.6s-3.3-0.6-3.7-1.8
			c-0.3-1.1,4.5-1.8,4.5-1.8l-0.1-0.8c0,0-3.7,0.1-5.7-1.4c0,0,0.6-0.8,4.1-1.2s-1.5-1.3-1.5-1.3l2.8-3l-1-4.1c0,0,3.6-1,4.7,1.4
			c1.1,2.3,4.8-5,4.8-5s1.4-4.4,3.7-4.4l0.4,5c0,0,0.9-4.4,5-3.7c4.1,0.7,6,2.8,6,2.8l2.8,0.2c0,0-0.7,1.4-1.8,2.8
			c-1.1,1.4,2.5,1.4,2.5,1.4s2.5,0,2.8,1.4c0.2,1.4,3.9-2.3,3.9-2.3s0.9-3.2,0.7-4.8c-0.2-1.6,6.9,3.4,6.9,3.4l1.1-6.2
			c0,0,3.2,0.2,2.5,3.6c-0.7,3.4,2.5,2.5,2.5,2.5s0.5-3,2.1-2.3c1.6,0.7,3.7,2.1,3.7,2.1s5.5-1.4,4.4-4.1c0,0,4.8-0.5,5,3.2
			c0.2,3.7,3.4,1.6,3.4,1.6l4.8-1.8C210.5,1146.6,208.1,1152.1,210.7,1153.1z"/>
		<path class="st19" d="M76.4,1238.4c0,0,0.2,15,1,16.4s-2.4,0.3-2.4,0.3s-4.8-2.8-6.1-13.2C69,1241.9,74.6,1240.3,76.4,1238.4z"/>
		<path class="st19" d="M77.1,1241.8v-2.4c0,0,0.6-1.6,0.9,0.3c0,0,0.1,4,1.4,4.6c0,0,0.6-2.4,6-3.5c0,0-0.4,18.8,10.8,19.8
			c0,0-3.3,8.7-4.4,18.8C91.8,1279.4,79,1272.2,77.1,1241.8z"/>
		<path class="st19" d="M87.3,1248.3c0,0,4.1,15.2,12.6,8.5c0,0,6-2.3,9.4-10.5l-1.4,1.3c0,0-0.9-3.8-0.6-5c0.3-1.1-2.5,2.2-2.5,2.2
			s-0.6-1.8-0.4-2.4c0,0-0.5-0.4-0.9,1.4c-0.4,1.7-1.8,2.9-1.8,2.9s-2.1-4-1.7-6.4h-0.5l-0.2,2.3c0,0-1.5-0.1-2-0.9
			c0,0-1.7,1.1-2.3,0.8c0,0-2.1,1.3-3.1,0.3C91.9,1242.7,91.9,1246,87.3,1248.3z"/>
		<path class="st19" d="M97.6,1269c0,0,0.8-11,5.8-12.9c5-1.9,8.5-13,8.5-13s3.6-3,3.9,1.4c0,0,0.5,2.2,2.5,2.1c0,0,1.4-4.5,4.5-5.3
			c3.1-0.8,3.5,7.8,3.5,7.8s-4.7,8-14.9,11.1S97.6,1269,97.6,1269z"/>
		<path class="st19" d="M149.9,1220.9c0,0-2-3.3-6-3.9l-0.3-3.9c0,0,4.8,2.1,6.4,1.9c0,0-0.5-1.7-1.7-2.8c0,0,4.8,2.5,6.4,2.5
			s-1,1.9-1,1.9s1.1,0.5,2.2,0C155.8,1216.5,155.4,1220.1,149.9,1220.9z"/>
		<path class="st19" d="M155,1213.2l-2.2-3.8c0,0,3,0.9,3.1,2.7C155.9,1213.9,155,1213.2,155,1213.2z"/>
		<path class="st19" d="M160.5,1218.6c0,0-1.2-3.6,1.6-2.9v5.2c0,0,0.1,1.7,0.8,2c0,0,4.1-3.5,4.4-5.3c0.3-1.8,2.1,0.3,2.1,0.3
			s-0.2,3.9-1.2,5l0.6,23.8c0,0-4.7-1.9-5.8-7.9C163,1238.8,160.7,1219.8,160.5,1218.6z"/>
		<path class="st19" d="M176.2,1222.7c0,0-1.9,1.7-2.4-0.7c-0.5-2.3,2.4-0.4,2.4-0.4S176.7,1222.4,176.2,1222.7z"/>
		<path class="st19" d="M178.6,1193.8c0,0-1.9-2,0.6-0.6c2.5,1.4,0,1.4,0,1.4L178.6,1193.8z"/>
		<path class="st19" d="M182.2,1194.1c0,0-3.2-1.6,0.4-0.9s2.1,1.5,2.1,1.5S183.2,1195.1,182.2,1194.1z"/>
		<path class="st19" d="M187.9,1199.2c0,0,0.2,1.5-1.2,0.5c-1.4-1-0.8-1.7-0.8-1.7S188.4,1196.9,187.9,1199.2z"/>
		<path class="st19" d="M179.4,1252.8c0,0-1.1-4.7-0.6-9.4c0.5-4.7,1.2-18.3,1.2-18.3s3-1.2,3.2-2.4c0,0,4.6,0.4,5.4-0.6
			c0,0-2.8,16.4-3,22.9C185.5,1245,180.3,1249.1,179.4,1252.8z"/>
	</g>
	<rect x="281.5" y="1176" class="st2" width="302.7" height="158.9"/>
	<text transform="matrix(1 0 0 1 281.4794 1185.5627)"><tspan x="0" y="0" class="st5 st15 st16">Once blanketing </tspan><tspan x="85.3" y="0" class="st17 st3 st18">12 percent</tspan><tspan x="154.1" y="0" class="st5 st15 st16"> of the world’s landmass, </tspan><tspan x="0" y="14.4" class="st5 st15 st16">tropical forests now cover just 5 percent. Tropical forest </tspan><tspan x="0" y="30" class="st5 st15 st16">restoration is growing and may sequester as much as </tspan><tspan x="266.9" y="30" class="st17 st3 st18">6</tspan><tspan x="274.6" y="30" class="st5 st15 st16"> </tspan><tspan x="0" y="45.6" class="st17 st3 st18">gigatons</tspan><tspan x="61.4" y="45.6" class="st5 st15 st16"> of carbon dioxide per year.</tspan><tspan x="0" y="74.4" class="st5 st15 st16">Through natural regrowth, committed land could sequester </tspan><tspan x="0" y="90" class="st17 st3 st18">1.4 tons</tspan><tspan x="50.2" y="90" class="st5 st15 st16"> of carbon dioxide per acre annually, for a total of </tspan><tspan x="0" y="105.6" class="st17 st3 st18">61.2 gigatons</tspan><tspan x="87.9" y="105.6" class="st5 st15 st16"> of carbon dioxide by </tspan><tspan x="195.6" y="105.6" class="st17 st3 st18">2050</tspan><tspan x="230.1" y="105.6" class="st5 st15 st16">.</tspan></text>
</g>
<g id="sec_3">
	<polygon class="st20" points="68.1,1139.4 20.9,1099.5 39.5,1099.5 39.5,1071.1 94.2,1071.1 93.8,1099.7 112.4,1099.6 	"/>
	<rect y="784.6" class="st20" width="612" height="289.5"/>
	<rect x="0.4" y="814.6" class="st2" width="387.9" height="77.3"/>
	<text transform="matrix(1 0 0 1 27.4932 840.4326)" class="st1 st3 st14">REDUCE FOOD WASTE</text>
	<g id="food">
		<g id="plate_2_">
			<circle id="plate" class="st21" cx="492.4" cy="909.6" r="56.4"/>
			<path id="plate_1_" class="st22" d="M503.9,872c0,0-42.2-9.1-48.6,34.7"/>
		</g>
		<path id="fork" class="st23" d="M525.6,895.7l-14.3,10.9l15.8-6.4l-11.8,12.3l15.1-8.2l-8.6,11.3c0,0,12.5-5.8,17.8-11.8
			c5.2-5.9,2.3-9.4,2.3-9.4l29.9-18.6l-2.6-4.2l-29.7,18.5c0,0-3.3-5.3-9.8-2.3c-6.5,3-18.1,12-18.1,12L525.6,895.7"/>
		<g id="pizza">
			<path class="st24" d="M471.3,940.6c-1.7-1.9-4.5-2.4-6.7-1.2c-6.2,3.3-18.2,10.8-23,22.2c-1.3,2.9-0.2,5.9,2.4,8.8
				c5.4,6,16.8,9.5,27.7,13.6c0.7,0.3,2.1-1,2.7-0.7c0.6,0.2,3.4-1.4,4-1.2c10.1,3.7,15.9,8.6,15.9,8.6s-3-26.1-20.7-47.5
				C472.8,942.3,472.1,941.4,471.3,940.6z"/>
			<circle class="st25" cx="467.6" cy="975.5" r="4.5"/>
			<path class="st26" d="M446.6,968.5c7-10.2,9.8-12.9,9.8-12.9s7.9-8.2,17.2-12.5c0,0-3.8-6.7-9-3.8c0,0-17.7,8.7-23,22.2
				C441.5,961.6,442.4,974.5,446.6,968.5z"/>
			<circle class="st25" cx="481.7" cy="972.9" r="2.9"/>
			<circle class="st25" cx="474.5" cy="960.6" r="5.3"/>
			<circle class="st25" cx="454.3" cy="969.1" r="3.3"/>
			<circle class="st25" cx="486.8" cy="980.8" r="3"/>
		</g>
		<g id="banana">
			<path class="st27" d="M513.5,1021.7c0,0-1.6,8.2-10.1,10.9c0,0,3.3,0.3,13.1-4.5s10.4-21,10.4-21l-6.3-3L513.5,1021.7z"/>
			<path class="st28" d="M524.6,986.5c-4.6,10.3-22.7,45.7-53.3,41.4c0,0,4.3,4,19.4,4.7c6.2,0.3,13.4-4.2,19.7-9.7
				c9.2-7.8,16.6-17.6,16.6-17.6s-18.5,22.2-1.5,45.9c0,0-5.4-16.6,4.2-30.6c9.6-14,16.2-42.1,16.3-42.3c0,0,0,0,0,0
				c0-0.1,2.2-7.3,2.7-14.2c0.6-7-8.5-0.6-8.5-0.6s-5.2,6.5-12.3,16.9C526.6,982.5,525.5,984.4,524.6,986.5z"/>
			<path class="st28" d="M542.2,971.6c0,0-3.1,13.7-13.7,28.9"/>
			<polygon class="st28" points="546.2,961.1 548.3,955.3 551.3,956.7 548.3,961.9 			"/>
		</g>
		<g id="fish">
			<path class="st29" d="M426,1048.3l26.9-35.1l-1.3-11.1c0,0,1.8,3.9,5.3,6.5s7.1,3.8,7.1,3.8"/>
			<path class="st30" d="M432.8,1054.1l-14.7-13c0,0-12.6,10.6-9.7,20.1c1.7,5.4,6.9,4.6,11.2,3c3.1-1.2,5.9-3,8.3-5.3L432.8,1054.1
				z"/>
			<path class="st29" d="M438.3,1043c0,0-1.4-7.2-13.3-11.1"/>
			<path class="st29" d="M444.2,1039.7c-3.1-7.2-2.9-10.5-13.9-14.8"/>
			<path class="st29" d="M450.2,1033.8c0,0-2.7-10.2-14.6-14.1"/>
			<path class="st29" d="M425.8,1048.8l27.3-34.9l11-1.5c0,0-4.2-0.7-7.6-3.5c-3.4-2.8-4.4-6-4.4-6"/>
			<g>
				<g>
					<path class="st30" d="M456.8,1008.7c-0.3-0.1-0.6-0.2-1-0.3c-0.4,1.6-0.9,3.2-1.3,4.8c0.8,0.2,1.6,0.5,2.4,0.7
						c0-1.6,0-3.2,0-4.8c-1,0.2-2,0.3-3,0.5c0.2,0,0.4-0.1,0.7-0.1c0,0,0,0-0.1,0c0.2,0,0.4,0.1,0.7,0.1c0,0,0,0-0.1,0
						c0.4,0.2,0.7,0.4,1.1,0.6c0,0,0,0,0,0c0.1,0.2,0.3,0.3,0.4,0.5c0,0,0,0,0,0c0.1,0.2,0.2,0.4,0.3,0.6c0,0,0-0.1,0-0.1
						c0,0.2,0.1,0.4,0.1,0.7c-0.1-1.1-0.2-2.2-0.2-3.2c0-0.6-0.3-1.3-0.7-1.8c-0.2-0.2-0.5-0.4-0.8-0.5c-0.3-0.2-0.6-0.2-1-0.2
						c-0.6,0-1.3,0.2-1.8,0.7c-0.4,0.5-0.7,1.1-0.7,1.8c0,0.6,0,1.2,0.1,1.8c0,0.3,0.1,0.6,0.1,0.9c0.1,0.7,0.1,1.3,0.4,1.9
						c0.5,0.8,1.4,1.3,2.3,1.3c0.3,0,0.7-0.1,1-0.1c0.3,0,0.6-0.1,0.9-0.1c0.6-0.1,1.2-0.2,1.8-0.3c0.2-0.1,0.4-0.2,0.6-0.3
						c0.3-0.2,0.5-0.4,0.7-0.6c0.2-0.2,0.3-0.3,0.3-0.6c0.2-0.3,0.2-0.6,0.2-1c0-0.4-0.1-0.9-0.3-1.3c-0.3-0.6-0.9-1-1.5-1.1
						c-0.8-0.2-1.6-0.5-2.4-0.7c-0.3-0.1-0.7-0.1-1,0c-0.3,0-0.6,0.1-0.9,0.3c-0.3,0.2-0.5,0.4-0.7,0.6c-0.2,0.2-0.4,0.5-0.4,0.9
						c-0.1,0.6-0.1,1.4,0.3,1.9c0.1,0.2,0.3,0.3,0.4,0.5c0.3,0.3,0.7,0.5,1.1,0.6c0.3,0.1,0.6,0.2,1,0.3c0.3,0.1,0.7,0.1,1,0
						c0.3,0,0.6-0.1,0.9-0.3c0.3-0.2,0.5-0.4,0.7-0.6c0.2-0.2,0.4-0.5,0.4-0.9c0.1-0.6,0.1-1.4-0.3-1.9c-0.1-0.2-0.3-0.3-0.4-0.5
						C457.6,1009,457.3,1008.8,456.8,1008.7L456.8,1008.7z"/>
				</g>
			</g>
			<circle cx="412.9" cy="1056.3" r="1.6"/>
		</g>
	</g>
	<rect x="27" y="875.5" class="st2" width="334.5" height="179.3"/>
	<text transform="matrix(1 0 0 1 27.0449 885.0478)"><tspan x="0" y="0" class="st1 st15 st16">The food we waste is responsible for roughly </tspan><tspan x="225.2" y="0" class="st19 st3 st18">8</tspan><tspan x="231.9" y="0" class="st19 st15 st16"> </tspan><tspan x="234.5" y="0" class="st19 st3 st18">percent</tspan><tspan x="287.6" y="0" class="st1 st15 st16"> of global </tspan><tspan x="0" y="14.4" class="st1 st15 st16">emissions.</tspan><tspan x="0" y="44.4" class="st1 st15 st16">If </tspan><tspan x="8.9" y="44.4" class="st19 st3 st18">50 percent</tspan><tspan x="81.5" y="44.4" class="st1 st15 st16"> of food waste is reduced by </tspan><tspan x="223.7" y="44.4" class="st19 st3 st18">2050</tspan><tspan x="258.2" y="44.4" class="st1 st15 st16">, avoided </tspan><tspan x="0" y="60" class="st1 st15 st16">emissions could be equal to</tspan><tspan x="138.9" y="60" class="st19 st15 st16"> </tspan><tspan x="141.4" y="60" class="st19 st3 st18">26.2 gigatons</tspan><tspan x="231.1" y="60" class="st1 st15 st16"> of carbon dioxide. </tspan><tspan x="0" y="74.4" class="st1 st15 st16">Reducing waste also avoids the deforestation for additional farm</tspan><tspan x="321.5" y="74.4" class="st1 st15 st16">-</tspan><tspan x="0" y="90" class="st1 st15 st16">land, preventing </tspan><tspan x="85" y="90" class="st19 st3 st18">44.4 gigatons</tspan><tspan x="173.5" y="90" class="st1 st15 st16"> of additional emissions.t</tspan></text>
</g>
<g id="sec_2_1_">
	<polygon class="st5" points="542.2,852 495,812 513.6,812 513.6,783.7 568.3,783.7 568,812.2 586.5,812.1 	"/>
	<rect id="sec_2" y="495.2" class="st5" width="612" height="289.5"/>
	<g id="graphic_1_">
		<path class="st17" d="M156.7,604h59.4c0,0,3-16.9-12.7-16.6c-0.9-1.9-14.1-23.8-30.2,0C173.2,587.4,156,582.6,156.7,604z"/>
		<path class="st20" d="M39.2,618.1h83.5c0,0,4.2-23.8-17.8-23.3c0,0-18-36.1-42.5,0C62.4,594.8,38.2,588.1,39.2,618.1z"/>
		<g>
			<polygon class="st19" points="170.8,784.6 170.8,628.2 178.2,628.2 178.2,784.6 			"/>
			<circle class="st19" cx="174.5" cy="628.2" r="6"/>
			<path class="st19" d="M180.3,629.8c0,0,31.4,3,66.9-4.3c0,0-44.5-5.5-68.2,1l-1,3.4L180.3,629.8z"/>
			<path class="st19" d="M171.1,633.4c0,0-16.9,26.7-44.3,50.3c0,0,22.9-38.6,42.5-53.3l3.3,1.3L171.1,633.4z"/>
			<path class="st19" d="M170.7,623.9c0,0-14.5-28.1-21-63.7c0,0,21.7,39.3,24.5,63.6l-2.8,2.2L170.7,623.9z"/>
		</g>
		<g>
			<rect x="109.7" y="650" class="st1" width="8.5" height="134.7"/>
			<circle class="st1" cx="113.9" cy="650" r="6.9"/>
			<path class="st1" d="M119.2,654c0,0,30.4,20.2,70.6,32.2c0,0-42.4-29.9-70.1-36.2l-2.9,2.9L119.2,654z"/>
			<path class="st1" d="M107.5,654c0,0-31.1,19.2-71.6,29.7c0,0,43.4-28.4,71.2-33.8l2.8,3L107.5,654z"/>
			<path class="st1" d="M111.6,643.2c0,0-4.8-36.2,2-77.5c0,0,8.3,51.2,1.8,78.8l-3.9,1.3L111.6,643.2z"/>
		</g>
	</g>
	<rect x="274.3" y="535.6" class="st2" width="362.1" height="86.4"/>
	<text transform="matrix(1 0 0 1 333.916 561.4163)" class="st1 st3 st14">WIND TURBINES</text>
	<rect x="333.5" y="592.3" class="st2" width="254.4" height="175.1"/>
	<text transform="matrix(1 0 0 1 333.5094 600.792)"><tspan x="0" y="0" class="st1 st15 st16">Wind energy is at the crest of initiatives to address </tspan><tspan x="0" y="14.4" class="st1 st15 st16">global warming in the coming three decades. </tspan><tspan x="0" y="30" class="st1 st15 st16">Today, </tspan><tspan x="35.8" y="30" class="st17 st3 st18">314,000</tspan><tspan x="88.6" y="30" class="st1 st15 st16"> wind turbines supply nearly </tspan><tspan x="232.3" y="30" class="st17 st3 st18">4 </tspan><tspan x="0" y="45.6" class="st17 st3 st18">percent</tspan><tspan x="53.1" y="45.6" class="st1 st15 st16"> of global electriciy.</tspan><tspan x="0" y="75.6" class="st1 st15 st16">An increase in onshore wind from </tspan><tspan x="170.3" y="75.6" class="st17 st3 st18">3</tspan><tspan x="178" y="75.6" class="st1 st15 st16"> to </tspan><tspan x="193.7" y="75.6" class="st17 st3 st18">21.6</tspan><tspan x="217.9" y="75.6" class="st1 st15 st16"> </tspan><tspan x="0" y="91.2" class="st1 st15 st16">percent by </tspan><tspan x="56.4" y="91.2" class="st17 st3 st18">2050</tspan><tspan x="90.8" y="91.2" class="st1 st15 st16"> could reduce emissions by </tspan><tspan x="228.1" y="91.2" class="st17 st3 st18">84.6</tspan><tspan x="252.9" y="91.2" class="st1 st15 st16"> </tspan><tspan x="0" y="106.8" class="st17 st3 st18">gigatons. </tspan></text>
</g>
<g id="sec_1_1_">
	<polygon class="st17" points="66.8,562.5 19.6,522.6 38.2,522.6 38.2,494.2 92.9,494.2 92.6,522.7 111.2,522.7 	"/>
	<rect id="sec_1" y="205.7" class="st17" width="612" height="289.5"/>
	<g id="graphic">
		<g id="couch">
			<g id="legs">
				<rect x="335.3" y="482.9" class="st0" width="9.2" height="12.2"/>
				<rect x="524" y="481.7" class="st0" width="9.2" height="13.5"/>
				<rect x="364.4" y="479.5" class="st0" width="9.2" height="15.6"/>
				<polygon class="st0" points="545.6,476.2 545.6,495.1 554.8,495.2 554.8,476.2 				"/>
			</g>
			<rect x="355.6" y="466.1" class="st2" width="127.3" height="16.5"/>
			<path class="st20" d="M554.7,482.9h-54.9H335.3v-21c0,0-15.5-13.8,0-25.6V432c0,0-16.6,0.1-17.1-14.5
				c-0.5-14.6,8.8-17.8,8.8-17.8s0-1.3,7.9-2h9.8h44.7v-25.7c0,0,1-7.5,12.6-7.9H538c0,0,9.5,0.1,13.4,6.5c3.9,6.4,3.5,9.4,3.5,9.4
				v17.8c0,0,15,0.1,16.9,13.4c1.9,13.3-7.8,18.1-7.8,18.1s-2.4,2.4-9.2,2.6L554.7,482.9z"/>
			<path class="st5" d="M480,431.9c0,0-16.7,0.6-16.5,15.4c0.2,14.8,11.5,18.1,11.5,18.1s2.2,0.7,5.1,0.7V431.9z"/>
			<rect x="352.2" y="466.1" class="st0" width="3.5" height="16.5"/>
			<path class="st0" d="M482.9,466.1v-36.7h-93.7v-31.7h-51.7c0,0,9.1,1.8,12.7,9.1c0,0,1.9,3,2.2,6.5v18.6H480v34.2H482.9z"/>
			<path class="st0" d="M499.8,482.9V432c0,0,14.6,0,16.6-15.5S502.9,398,502.9,398H501l20.3-0.5v-18.6c0,0-0.3-9,6.6-12.6
				c0,0,2-1.3,6-2.2h5c0,0,8.1,0.6,11.7,5.4c3.6,4.8,4.2,9.9,4.2,9.9v18.5c0,0,15.1,0.1,16.9,13.4c1.8,13.3-7.8,18.1-7.8,18.1
				s-1.8,2.1-9.2,2.6v51H499.8z"/>
			<g id="button">
				<circle class="st5" cx="416.8" cy="382.4" r="2.6"/>
				<circle class="st5" cx="493.7" cy="382.8" r="2.6"/>
				<circle class="st5" cx="333.7" cy="414.3" r="2.6"/>
				<circle class="st5" cx="499.8" cy="414.3" r="2.6"/>
			</g>
		</g>
		<g id="person">
			<path class="st31" d="M372.8,395.1c0,0-14.6-1.7-22.8-16.4c-8.2-14.8-6.5-24.7-6.5-24.7s1.1-8.4,7.8-13.3
				c6.6-5,15.7-4.4,15.7-4.4s6.2-0.7,10.4,3.8c4.1,4.5,6.6,8.8,6.6,8.8l2.2,7.8c0,0,4.1,4.9,4,8.7c-0.2,3.8-0.4,5.3-0.4,5.3
				l4.8,13.9c0,0,0.8,1.9,6.4,2.6c5.6,0.6,7.2,4.6,7.2,4.6s1,3.8,0,5.7l6.4,10.5c0,0,3.4-3.6,8.9-2.3c0,0,4.6,3.8-0.8,6.8l11.7-0.6
				c0,0,1.8,0.2,2.5,0.6l16.8-18.1c0,0,8.8-10,18.2,0l8.5,9.4l59.4-13.7l4.6-9.6c0,0,4.3-3.2,4.1,1.9l-4.6,9.5c0,0,1.5,3.2-1.5,5.2
				c0,0-1.6,0.7-3.6,0.8c-2,0.1-18.6,0.1-18.6,0.1l-35.7,9.4c0,0-1.9,2.6-1.9,8.8l-4.6-4.7l-37.5,8.9c0,0-1.4,6.4-9.7,10.3
				s-22.8-0.6-22.8-0.6s-11.6-6.1-19.4-18.4l-9.1-13.8l-0.1,60.4v3.1c0,0-0.5,1.8-1.8,2.3l-0.1,4.6c0,0-3.3,5.8-7.4,0
				c0,0-1.3-9.3,3.1-10.7l-0.2-44.8L372.8,395.1z"/>
			<path class="st32" d="M379.3,413.4h-6.4v-19.8c0,0,0.2-2.1,2.5-2.8l3.6-2.3l4.1,4.3c0,0,9.2,3.6,7.5-5c0,0-0.5-1.5-1.9-2.9
				l-2-1.3c0,0,3.5-1.3,5.8,0.4c0,0,2.4,2.7,7,3.4c4.6,0.7,4.9,1.3,4.9,1.3s3.5,1.8,3.7,4.7c0,0,0.6,2.6-0.2,4.5l6.4,10.5
				c0,0-3.8,3.9-2,7c1.8,3.1,5.3,0.9,5.3,0.9l2.2-2.9l2.7-0.5l2.9-0.1c0,0-6.9,2.3-8.4,10.4c0,0,0.2,5.5,1.7,9.6
				c0,0-8.7-0.7-10.4-1.9c0,0-8.9-4.9-12-8.8c0,0-9.5-10.1-12.3-16.2l-4.8-7.3L379.3,413.4z"/>
			<path class="st33" d="M344.5,365.7c0,0,1.1,7.3,8.2,17.5c7.1,10.2,20.2,11.9,20.2,11.9l0.1-1.7c0.1-0.6,0.4-1.1,0.4-1.1
				c0.8-1.4,2.2-1.7,2.2-1.7l1.6-1l2-1.3l0.3-0.5l-3.1-7.9c0,0-1.1,0.6-4.8,0.6c-3.7,0-6.3-0.8-6.3-0.8c-1.2-0.3-2.5,0.5-2.5,0.5
				s-2.7,3.4-6.9,0.9c-4.2-2.5-2.2-7.5-2.2-7.5l7.5-6.8c8.9-8.8,4.2-19,4.2-19l2.1,0.9c5.3,2.9,12.4,0.5,12.4,0.5l6.4,7.6l-2.2-7.8
				c0,0-3.3-8.8-10.8-11.8s-15-0.3-15-0.3s-2.7,0.5-6.2,2.7C351.9,339.6,337.8,346,344.5,365.7z"/>
			<path class="st33" d="M383.5,377.5l2.5,6l0.9-0.3c0,0,1.3-0.5,3.3-0.5c0,0,1.1,0.1,2.3,0.7l1.2,1.1l0.8,0.6l-4.7-14.3
				c0,0-0.3,2.8-2.4,4.4S383.5,377.5,383.5,377.5z"/>
			<path d="M370.1,360.6c0,0,1.2,5.5-5,4.2c0,0-2-1.4,0.9-1.5c0,0,3.2,1.3,2.8-2.3C368.8,361.1,368.8,358.3,370.1,360.6z"/>
			<path d="M379.9,352.2c0,0,1.2,5.5-5,4.2c0,0-2-1.4,0.9-1.5c0,0,3.2,1.3,2.8-2.3C378.5,352.7,378.6,349.9,379.9,352.2z"/>
			<path class="st34" d="M367.5,372.4c-1.4-0.1-2.6-0.8-1.1-3.6c0.2-0.5,0.6-0.9,0.9-1.2v0c0.9-0.8,1.9-1.4,3.1-1.6
				c1.4-0.2,2.9,0.1,2.2,2.7c-0.2,0.8-0.6,1.5-1.2,2l0,0C370.4,371.8,368.9,372.5,367.5,372.4z"/>
			<path class="st34" d="M381.4,360.2c-1,0-1.9-0.6-0.8-2.7c0.2-0.3,0.4-0.7,0.7-0.9l0,0c0.6-0.6,1.4-1,2.2-1.2
				c1-0.2,2.1,0.1,1.6,2.1c-0.1,0.6-0.4,1.1-0.9,1.5l0,0C383.6,359.8,382.5,360.2,381.4,360.2z"/>
			<path class="st34" d="M384.5,363.1c0,0,3.3,10.7-7.9,7.5c0,0-0.7-0.8,0.5-1c0,0,8.2,2.4,6.6-4.9
				C383.7,364.7,383.2,362.3,384.5,363.1z"/>
			<path class="st35" d="M488.7,401.9c0,0-3.5,3.1-4.4,5.6l-6.3,4.3l-37.6,8.8H440l0.5-0.8l8.4-9.2L488.7,401.9z"/>
			<path class="st36" d="M418.8,432.6c0,0-7.2-14.6,6.6-19.9l5.6-0.3c0,0,4.1-0.6,5.8,0.4l16.8-18.1c0,0,8.3-10.3,18.2,0l12.5,13.1
				c0,0-1.8,2.3-1.9,8.8L472,405.8l-6.6-6.7c0,0-2.6-2.9-5.8,0l-11.2,12.3l-7.9,8.7c0,0-1.2,9.2-13.1,12.2
				C427.4,432.2,426.8,432.6,418.8,432.6z"/>
			<path class="st35" d="M523,394c0,0-1.8,1.4-1.7,3.6l-0.1,0.5l-15.9-0.1L523,394z"/>
			<path class="st0" d="M501.1,398c0,0,13.7,1.7,15.3,13.7l6.5-13.6L501.1,398z"/>
			<path class="st20" d="M484.3,407.5c0,0,2.9-9.8,16.7-9.5s15.5,13.6,15.5,13.6l-10,4.6L484.3,407.5z"/>
			<path class="st5" d="M448.9,410.5l10.7-11.7c0,0,2.8-3.1,5.8,0l6.6,6.7L448.9,410.5z"/>
		</g>
		<g id="AIR">
			<g id="air_1_">
				<path class="st37" d="M447.2,356.6c0,0,9.8-10,0-25.6c-9.8-15.5,2.2-32.1,2.2-32.1s1.4-2.1,0.2-3.1c-1.2-1-2.7,0.9-2.7,0.9
					s-13.6,19.5-1.8,35.5c0,0,8.6,13.5,0.8,20.9c-0.7,0.7-1.3,1.6-1.7,2.5c0,0,0,0,0,0c-0.6,1.4,1.1,2.6,2.3,1.7
					C446.6,357.2,446.9,356.9,447.2,356.6z"/>
			</g>
			<g id="air_2_">
				<path class="st37" d="M471.3,347.5c0,0,9.8-10,0-25.6c-9.8-15.5,2.2-32.1,2.2-32.1s1.4-2.1,0.2-3.1c-1.2-1-2.7,0.9-2.7,0.9
					s-13.6,19.5-1.8,35.5c0,0,8.6,13.5,0.8,20.9c-0.7,0.7-1.3,1.6-1.7,2.5c0,0,0,0,0,0c-0.6,1.4,1.1,2.6,2.3,1.7
					C470.7,348.1,471,347.9,471.3,347.5z"/>
			</g>
			<g id="air_3_">
				<path class="st37" d="M497.6,355.2c0,0,9.8-10,0-25.6c-9.8-15.5,2.2-32.1,2.2-32.1s1.4-2.1,0.2-3.1c-1.2-1-2.7,0.9-2.7,0.9
					s-13.6,19.5-1.8,35.5c0,0,8.6,13.5,0.8,20.9c-0.7,0.7-1.3,1.6-1.7,2.5c0,0,0,0,0,0c-0.6,1.4,1.1,2.6,2.3,1.7
					C497,355.9,497.3,355.6,497.6,355.2z"/>
			</g>
			<g id="air">
				<path class="st37" d="M421.1,346.2c0,0,9.8-10,0-25.6c-9.8-15.5,2.2-32.1,2.2-32.1s1.4-2.1,0.2-3.1c-1.2-1-2.7,0.9-2.7,0.9
					s-13.6,19.5-1.8,35.5c0,0,8.6,13.5,0.8,20.9c-0.7,0.7-1.3,1.6-1.7,2.5c0,0,0,0,0,0c-0.6,1.4,1.1,2.6,2.3,1.7
					C420.5,346.8,420.8,346.5,421.1,346.2z"/>
			</g>
		</g>
		<g>
			<path class="st0" d="M510,280.7H403c-4.2,0-7.7-3.5-7.7-7.7v-31c0-4.2,3.5-7.7,7.7-7.7H510c4.2,0,7.7,3.5,7.7,7.7v31
				C517.7,277.2,514.3,280.7,510,280.7z"/>
			<path class="st38" d="M509.4,275.8H403.6c-1.3,0-2.4-1.1-2.4-2.4l-2-10.6c0-0.3,0.2-0.3,0.5-0.3l113.5-0.1c0.3,0,0.5,0.3,0.5,0.6
				l-1.8,10.3C511.9,274.7,510.8,275.8,509.4,275.8z"/>
			<path class="st39" d="M507.9,266.2H405.1c-0.3,0-0.5-0.2-0.5-0.5v-0.1c0-0.3,0.2-0.5,0.5-0.5h102.7c0.3,0,0.5,0.2,0.5,0.5v0.1
				C508.4,265.9,508.2,266.2,507.9,266.2z"/>
			<path class="st39" d="M507.9,269.1H405.1c-0.3,0-0.5-0.2-0.5-0.5v-0.1c0-0.3,0.2-0.5,0.5-0.5h102.7c0.3,0,0.5,0.2,0.5,0.5v0.1
				C508.4,268.9,508.2,269.1,507.9,269.1z"/>
			<path class="st39" d="M507.9,272.1H405.1c-0.3,0-0.5-0.2-0.5-0.5v-0.1c0-0.3,0.2-0.5,0.5-0.5h102.7c0.3,0,0.5,0.2,0.5,0.5v0.1
				C508.4,271.8,508.2,272.1,507.9,272.1z"/>
			<path class="st39" d="M507.9,274.8H405.2c-0.3,0-0.5-0.2-0.5-0.5v-0.1c0-0.3,0.2-0.5,0.5-0.5h102.7c0.3,0,0.5,0.2,0.5,0.5v0.1
				C508.5,274.6,508.2,274.8,507.9,274.8z"/>
			<path class="st39" d="M482.4,258.8h-51.6c-0.3,0-0.5-0.2-0.5-0.5v-1.6c0-0.3,0.2-0.5,0.5-0.5h51.6c0.3,0,0.5,0.2,0.5,0.5v1.6
				C482.9,258.5,482.6,258.8,482.4,258.8z"/>
			<path class="st40" d="M413.2,245.8H403c-1.1,0-1.9-0.9-1.9-1.9v-3.1c0-1.1,0.9-1.9,1.9-1.9h10.2c1.1,0,1.9,0.9,1.9,1.9v3.1
				C415.2,244.9,414.3,245.8,413.2,245.8z"/>
			<rect x="402.1" y="240.1" class="st2" width="4.2" height="2.5"/>
			<text transform="matrix(1 0 0 1.27 402.076 241.3428)" class="st41 st42 st43">19</text>
			<rect x="409.1" y="240.1" class="st2" width="11.7" height="3.8"/>
			<text transform="matrix(1 0 0 1.27 409.0574 241.3428)" class="st41 st42 st43">COOL</text>
		</g>
	</g>
	<rect x="27" y="312.3" class="st2" width="291.2" height="157.9"/>
	<text transform="matrix(1 0 0 1 27.0447 321.5498)"><tspan x="0" y="0" class="st1 st15 st18">Refridgerators and air conditioners contain chemicals </tspan><tspan x="0" y="15.6" class="st1 st15 st18">called </tspan><tspan x="34.8" y="15.6" class="st20 st3 st18">CFC’s</tspan><tspan x="68.3" y="15.6" class="st1 st15 st18"> and </tspan><tspan x="94.6" y="15.6" class="st20 st3 st18">HCFC’s</tspan><tspan x="136.1" y="15.6" class="st1 st15 st18"> and</tspan><tspan x="159.7" y="15.6" class="st1 st15 st18"> absorb and release </tspan><tspan x="0" y="31.2" class="st1 st15 st18">heat to enable chilling.</tspan><tspan x="0" y="62.4" class="st1 st15 st18">Over thirty years, containing </tspan><tspan x="155.8" y="62.4" class="st20 st3 st18">87 percent</tspan><tspan x="225.1" y="62.4" class="st1 st15 st18"> of refriger</tspan><tspan x="281.4" y="62.4" class="st1 st15 st18">-</tspan><tspan x="0" y="78" class="st1 st15 st18">ants likely to be released could avoid emissions </tspan><tspan x="0" y="93.6" class="st1 st15 st18">equivalent to </tspan><tspan x="74.6" y="93.6" class="st20 st3 st18">89.7 gigatons</tspan><tspan x="163" y="93.6" class="st1 st15 st18"> of carbon dioxide. </tspan></text>
	<rect x="-25.6" y="243.1" class="st2" width="375" height="60.8"/>
	<text transform="matrix(1 0 0 1 26.1654 268.9084)" class="st1 st3 st14">REFRIDGERATION</text>
</g>
<g id="title">
	<rect id="title_bg" class="st0" width="612" height="205.7"/>
	<rect x="112" y="140" class="st2" width="371.7" height="56.3"/>
	<text transform="matrix(1 0 0 1 114.916 151.1426)" class="st1 st15 st44">CLIMATE CHANGE IS INEVI</text>
	<text transform="matrix(0.7 0 0 0.7 234.7046 151.1426)" class="st1 st15 st45">t</text>
	<text transform="matrix(1 0 0 1 240.1665 151.1426)" class="st1 st15 st44">ABLE AND THESE ARE THE MOST EFFECTIVE STEPS IN </text>
	<text transform="matrix(1 0 0 1 224.5869 164.3423)" class="st1 st15 st44">REDUCING CARBON EMISSIONS.</text>
	<rect x="56.7" y="40.8" class="st2" width="484.1" height="123.4"/>
	<text transform="matrix(1 0 0 1 76.4663 69.5376)"><tspan x="0" y="0" class="st1 st3 st46">HOW TO REDUCE CARBON</tspan><tspan x="127.3" y="46.8" class="st1 st3 st46">EMISSIONS</tspan></text>
	<g id="title_pic">
		<circle class="st20" cx="530.4" cy="92.4" r="8.9"/>
		<circle class="st5" cx="538.6" cy="106.5" r="8.6"/>
		<circle class="st17" cx="531.9" cy="119.2" r="6.1"/>
		<polygon class="st19" points="514.8,205.7 522.9,125.7 542.3,125.7 549.1,205.7 		"/>
	</g>
	<g id="windmill_pic">
		<rect x="53.5" y="120.5" class="st19" width="4.4" height="85.2"/>
		<circle class="st19" cx="55.7" cy="117.1" r="4.2"/>
		<path class="st19" d="M58,119.9c0,0,4.7,8.4,33.4,24c0,0-15.8-17.7-32-25.9L58,119.9z"/>
		<path class="st19" d="M53.5,119.9c0,0-4.7,8.4-33.4,24c0,0,15.8-17.7,32-25.9L53.5,119.9z"/>
		<path class="st19" d="M54.7,114.2c0,0-4.1-8.7-0.2-41.1c0,0,5.2,23.1,2.6,41.1L54.7,114.2z"/>
	</g>
</g>
<g id="cfc">
	<circle class="st1" cx="520.6" cy="314" r="11.3"/>
	<text transform="matrix(1 0 0 1 512.6556 317.2459)" class="st5 st3 st47">CFC</text>
</g>
<g id="hcfc">
	<circle class="st20" cx="541.2" cy="292" r="11.3"/>
	<text transform="matrix(1 0 0 1 531.6922 294.3266)" class="st1 st3 st48">hcfc</text>
</g>
<g id="cfc_1_">
	<circle class="st1" cx="534.3" cy="265.1" r="11.3"/>
	<text transform="matrix(1 0 0 1 526.3872 268.3206)" class="st5 st3 st47">CFC</text>
</g>
<g id="hcfc_1_">
	<circle class="st20" cx="563.9" cy="256.1" r="11.3"/>
	<text transform="matrix(1 0 0 1 554.3488 258.4303)" class="st1 st3 st48">hcfc</text>
</g>
<path class="st49" d="M544.3,314c0,0,16.1-3,19.6-18.4c3.5-15.5,14.8-19.7,14.8-19.7"/>
<polygon class="st50" points="577.6,273.7 579.3,278.2 582.8,273.7 "/>
<path class="st51" d="M523,245.8c0,0,7.2-10.2,21.2-7s23.3-12.4,23.3-12.4"/>
<polygon class="st52" points="563.9,224.3 570.7,228.4 570.7,220.5 "/>
<rect x="360.5" y="1714.9" class="st2" width="237.5" height="221.3"/>
<text transform="matrix(1 0 0 1 393.3186 1727.0172)"><tspan x="0" y="0" class="st1 st15 st53">All information was retrieved </tspan><tspan x="-19.1" y="29" class="st1 st15 st53">from ‘The Drawdown’ edited by </tspan><tspan x="112.8" y="58" class="st1 st15 st53">Paul Hawken</tspan><tspan x="-12.9" y="116" class="st1 st15 st53">For more information, visit The </tspan><tspan x="46.2" y="145" class="st1 st15 st53">Drawdown website at:</tspan><tspan x="30.1" y="203" class="st1 st15 st54">https://www.drawdown.org</tspan></text>
<rect x="10.2" y="1716.9" class="st2" width="229.4" height="45.5"/>
<text transform="matrix(1 0 0 1 10.1702 1728.9281)"><tspan x="0" y="0" class="st1 st15 st53">Concept and illustrations by </tspan><tspan x="0" y="27" class="st1 st15 st53">Victoria Collier</tspan></text>
<rect x="10.2" y="1871.3" class="st2" width="229.4" height="173.8"/>
<text transform="matrix(1 0 0 1 10.1699 1881.947)"><tspan x="0" y="0" class="st1 st15 st54">The Drawdown was created to make </tspan><tspan x="0" y="28" class="st1 st15 st54">this information comprehensive and </tspan><tspan x="0" y="56" class="st1 st15 st54">understandable to every reader. </tspan></text>
</svg>
