<svg id="LOGO" xmlns="http://www.w3.org/2000/svg" viewBox="0 0 537.04 415.09"><defs><style>.cls-1,.cls-2{fill:#dd908a;stroke:#dd908a;stroke-miterlimit:10;}.cls-2{font-size:139.21px;font-family:bromello;letter-spacing:-0.06em;}.cls-3{letter-spacing:0.08em;}.cls-4{fill:#4d4f75;}</style></defs><title>Laura_Logo</title><g id="LEFT_SIDE" data-name="LEFT SIDE"><path id="BRANCH" class="cls-1" d="M268.77,89.83s-74.06,28.8-75.7,112.73S286.2,305.39,286.2,305.39l-7.5-8.46S200,278,198.45,201.87,268.77,89.83,268.77,89.83Z" transform="translate(-32.45 -79.53)"/><g id="LEAVES"><path class="cls-1" d="M259.37,103.12s-10.65,22.12-25.85,19.18S259.37,103.12,259.37,103.12Z" transform="translate(-32.45 -79.53)"/><path class="cls-1" d="M262.43,80.74s-23.79,6.08-23.91,21.56S262.43,80.74,262.43,80.74Z" transform="translate(-32.45 -79.53)"/><path class="cls-1" d="M243.91,125s-20.25-3.71-26.3,8.35S243.91,125,243.91,125Z" transform="translate(-32.45 -79.53)"/><path class="cls-1" d="M238.13,133.29S226.7,155,211.61,151.54,238.13,133.29,238.13,133.29Z" transform="translate(-32.45 -79.53)"/><path class="cls-1" d="M274.21,96.85s-14.65-5.66-20.9,2.52S274.21,96.85,274.21,96.85Z" transform="translate(-32.45 -79.53)"/><path class="cls-1" d="M233.43,94.41s8.38,5.42-.17,18.82S233.43,94.41,233.43,94.41Z" transform="translate(-32.45 -79.53)"/><path class="cls-1" d="M228.37,95.59s-18.2,16.47-11.09,30.22S228.37,95.59,228.37,95.59Z" transform="translate(-32.45 -79.53)"/><path class="cls-1" d="M267.31,83.6s-2,10.82-9.15,11.57S267.31,83.6,267.31,83.6Z" transform="translate(-32.45 -79.53)"/><path class="cls-1" d="M226.27,152.7s-20.54,1.42-23.41,14.61S226.27,152.7,226.27,152.7Z" transform="translate(-32.45 -79.53)"/><path class="cls-1" d="M221.68,162.17s-5.68,23.88-21.16,24.26S221.68,162.17,221.68,162.17Z" transform="translate(-32.45 -79.53)"/><path class="cls-1" d="M217.81,182.62s-21.41,5.89-21.62,20.44S217.81,182.62,217.81,182.62Z" transform="translate(-32.45 -79.53)"/><path class="cls-1" d="M218.7,193.63s-2.51,24.42-17.8,26.81S218.7,193.63,218.7,193.63Z" transform="translate(-32.45 -79.53)"/><path class="cls-1" d="M207.79,117.24s9.73,2.21,6.32,17.73S207.79,117.24,207.79,117.24Z" transform="translate(-32.45 -79.53)"/><path class="cls-1" d="M203.44,120.1s-11.42,21.73,0,32.19S203.44,120.1,203.44,120.1Z" transform="translate(-32.45 -79.53)"/><path class="cls-1" d="M182.81,162.17s-3.46,21.93,9.71,28.12S182.81,162.17,182.81,162.17Z" transform="translate(-32.45 -79.53)"/><path class="cls-1" d="M190,139.71s17.16,17.55,9.22,30.84S190,139.71,190,139.71Z" transform="translate(-32.45 -79.53)"/><path class="cls-1" d="M224.36,212.38s-23.28,7.79-22.26,23.24S224.36,212.38,224.36,212.38Z" transform="translate(-32.45 -79.53)"/><path class="cls-1" d="M223.72,223.27s4.2,24.19-9.88,30.64S223.72,223.27,223.72,223.27Z" transform="translate(-32.45 -79.53)"/><path class="cls-1" d="M176.63,207.54s6,21.38,20.51,21.55S176.63,207.54,176.63,207.54Z" transform="translate(-32.45 -79.53)"/><path class="cls-1" d="M173.86,184.12s22.91,8.84,21.19,24.23S173.86,184.12,173.86,184.12Z" transform="translate(-32.45 -79.53)"/><path class="cls-1" d="M186.24,248.09s13.85,17.35,27.31,11.81S186.24,248.09,186.24,248.09Z" transform="translate(-32.45 -79.53)"/><path class="cls-1" d="M174.53,227.62s24.54-.82,29,14S174.53,227.62,174.53,227.62Z" transform="translate(-32.45 -79.53)"/><path class="cls-1" d="M231,237.8s-15.86,18.75-7,31.43S231,237.8,231,237.8Z" transform="translate(-32.45 -79.53)"/><path class="cls-1" d="M238.09,249.25s14,20.2,3.89,32S238.09,249.25,238.09,249.25Z" transform="translate(-32.45 -79.53)"/><path class="cls-1" d="M208.7,281.62s19.76,10.12,29.75-.46S208.7,281.62,208.7,281.62Z" transform="translate(-32.45 -79.53)"/><path class="cls-1" d="M189.61,267.78s22-10.84,32.18.86S189.61,267.78,189.61,267.78Z" transform="translate(-32.45 -79.53)"/><path class="cls-1" d="M251.14,258.85s-7.53,23.37,5.51,31.71S251.14,258.85,251.14,258.85Z" transform="translate(-32.45 -79.53)"/><path class="cls-1" d="M262,266.74s20.59,13.37,15.75,28.07S262,266.74,262,266.74Z" transform="translate(-32.45 -79.53)"/><path class="cls-1" d="M243.46,306.66s22.85,8.32,32.28-4.54S243.46,306.66,243.46,306.66Z" transform="translate(-32.45 -79.53)"/><path class="cls-1" d="M220.82,294.2s22.49-14.78,35.11-3.44S220.82,294.2,220.82,294.2Z" transform="translate(-32.45 -79.53)"/></g></g><g id="RIGHT_SIDE" data-name="RIGHT SIDE"><path id="BRANCH-2" data-name="BRANCH" class="cls-1" d="M329.54,89.42s74.06,28.8,75.7,112.73S312.11,305,312.11,305l7.5-8.46s78.75-18.93,80.25-95S329.54,89.42,329.54,89.42Z" transform="translate(-32.45 -79.53)"/><g id="LEAVES-2" data-name="LEAVES"><path class="cls-1" d="M338.94,102.72s10.65,22.11,25.86,19.17S338.94,102.72,338.94,102.72Z" transform="translate(-32.45 -79.53)"/><path class="cls-1" d="M335.88,80.33s23.79,6.08,23.91,21.56S335.88,80.33,335.88,80.33Z" transform="translate(-32.45 -79.53)"/><path class="cls-1" d="M354.4,124.59s20.25-3.72,26.3,8.35S354.4,124.59,354.4,124.59Z" transform="translate(-32.45 -79.53)"/><path class="cls-1" d="M360.18,132.88s11.43,21.73,26.52,18.25S360.18,132.88,360.18,132.88Z" transform="translate(-32.45 -79.53)"/><path class="cls-1" d="M324.1,96.44S338.75,90.78,345,99,324.1,96.44,324.1,96.44Z" transform="translate(-32.45 -79.53)"/><path class="cls-1" d="M364.88,94s-8.37,5.43.17,18.83S364.88,94,364.88,94Z" transform="translate(-32.45 -79.53)"/><path class="cls-1" d="M369.94,95.18s18.21,16.47,11.09,30.23S369.94,95.18,369.94,95.18Z" transform="translate(-32.45 -79.53)"/><path class="cls-1" d="M331,83.19s2,10.83,9.14,11.57S331,83.19,331,83.19Z" transform="translate(-32.45 -79.53)"/><path class="cls-1" d="M372.05,152.29s20.53,1.43,23.4,14.61S372.05,152.29,372.05,152.29Z" transform="translate(-32.45 -79.53)"/><path class="cls-1" d="M376.63,161.76s5.69,23.88,21.17,24.26S376.63,161.76,376.63,161.76Z" transform="translate(-32.45 -79.53)"/><path class="cls-1" d="M380.51,182.22s21.4,5.88,21.61,20.43S380.51,182.22,380.51,182.22Z" transform="translate(-32.45 -79.53)"/><path class="cls-1" d="M379.61,193.22s2.51,24.42,17.8,26.82S379.61,193.22,379.61,193.22Z" transform="translate(-32.45 -79.53)"/><path class="cls-1" d="M390.52,116.84s-9.73,2.2-6.32,17.73S390.52,116.84,390.52,116.84Z" transform="translate(-32.45 -79.53)"/><path class="cls-1" d="M394.87,119.69s11.42,21.73,0,32.19S394.87,119.69,394.87,119.69Z" transform="translate(-32.45 -79.53)"/><path class="cls-1" d="M415.5,161.76s3.46,21.93-9.71,28.12S415.5,161.76,415.5,161.76Z" transform="translate(-32.45 -79.53)"/><path class="cls-1" d="M408.31,139.3s-17.17,17.56-9.23,30.85S408.31,139.3,408.31,139.3Z" transform="translate(-32.45 -79.53)"/><path class="cls-1" d="M374,212s23.28,7.8,22.27,23.25S374,212,374,212Z" transform="translate(-32.45 -79.53)"/><path class="cls-1" d="M374.6,222.86s-4.21,24.19,9.87,30.64S374.6,222.86,374.6,222.86Z" transform="translate(-32.45 -79.53)"/><path class="cls-1" d="M421.68,207.13s-6,21.38-20.51,21.55S421.68,207.13,421.68,207.13Z" transform="translate(-32.45 -79.53)"/><path class="cls-1" d="M424.45,183.71s-22.9,8.84-21.19,24.23S424.45,183.71,424.45,183.71Z" transform="translate(-32.45 -79.53)"/><path class="cls-1" d="M412.07,247.68S398.22,265,384.76,259.49,412.07,247.68,412.07,247.68Z" transform="translate(-32.45 -79.53)"/><path class="cls-1" d="M423.78,227.21s-24.54-.82-29,14S423.78,227.21,423.78,227.21Z" transform="translate(-32.45 -79.53)"/><path class="cls-1" d="M367.29,237.39s15.86,18.75,7,31.43S367.29,237.39,367.29,237.39Z" transform="translate(-32.45 -79.53)"/><path class="cls-1" d="M360.22,248.84s-14,20.2-3.89,32S360.22,248.84,360.22,248.84Z" transform="translate(-32.45 -79.53)"/><path class="cls-1" d="M389.61,281.21s-19.76,10.13-29.75-.46S389.61,281.21,389.61,281.21Z" transform="translate(-32.45 -79.53)"/><path class="cls-1" d="M408.7,267.37s-22-10.84-32.18.86S408.7,267.37,408.7,267.37Z" transform="translate(-32.45 -79.53)"/><path class="cls-1" d="M347.18,258.44s7.52,23.37-5.52,31.71S347.18,258.44,347.18,258.44Z" transform="translate(-32.45 -79.53)"/><path class="cls-1" d="M336.28,266.33s-20.6,13.37-15.76,28.08S336.28,266.33,336.28,266.33Z" transform="translate(-32.45 -79.53)"/><path class="cls-1" d="M354.85,306.25s-22.85,8.32-32.28-4.54S354.85,306.25,354.85,306.25Z" transform="translate(-32.45 -79.53)"/><path class="cls-1" d="M377.49,293.79S355,279,342.38,290.35,377.49,293.79,377.49,293.79Z" transform="translate(-32.45 -79.53)"/></g></g><text class="cls-2" transform="translate(119.98 335.68)">L<tspan class="cls-3" x="55.54" y="0">aura</tspan></text><path class="cls-4" d="M176.25,486.23a48.28,48.28,0,0,1-2.61,7.24,37.46,37.46,0,0,1-8.35,1.15c-12.43,0-18.1-8.22-18.1-16.91,0-10.37,7.51-17.08,18.91-17.08a51.82,51.82,0,0,1,8.69,1c.23,2.35.45,5.16.75,7.21l-.82.16c-.92-3.15-1.76-5.29-4.57-6.39a15.93,15.93,0,0,0-5.51-.86c-8.62,0-12.64,7-12.64,15,0,9.91,4.91,16.65,13.55,16.65,5.44,0,7.77-3.13,9.89-7.48Z" transform="translate(-32.45 -79.53)"/><path class="cls-4" d="M216.17,460.63c8.49,0,15.9,6.79,15.9,16.55,0,10.5-7.28,17.44-16.26,17.44s-16-7.26-16-16.56C199.81,469.08,206,460.63,216.17,460.63Zm-1,1.13c-5.65,0-10.58,5.15-10.58,14.9s4.87,16.79,12.24,16.79c5.74,0,10.38-5.09,10.38-14.77C227.25,467.93,222.23,461.76,215.21,461.76Z" transform="translate(-32.45 -79.53)"/><path class="cls-4" d="M279.47,486.2c-.28,1.57-1.35,6.06-1.85,7.67H255.17v-.64c4.45-.61,4.7-1,4.7-5.15V467c0-4.17-.44-4.51-4.32-5v-.64H268V462c-3.71.66-4.06.88-4.06,5v21.87c0,3.49.64,3.66,3.85,3.66.93,0,2.45,0,3.29,0,2.9,0,4-.11,5.32-1.89a18.68,18.68,0,0,0,2.4-4.6Z" transform="translate(-32.45 -79.53)"/><path class="cls-4" d="M325,486.2c-.29,1.57-1.35,6.06-1.86,7.67H300.73v-.64c4.45-.61,4.7-1,4.7-5.15V467c0-4.17-.43-4.51-4.32-5v-.64h12.41V462c-3.71.66-4.06.88-4.06,5v21.87c0,3.49.65,3.66,3.85,3.66.93,0,2.46,0,3.29,0,2.91,0,4-.11,5.32-1.89a19,19,0,0,0,2.41-4.6Z" transform="translate(-32.45 -79.53)"/><path class="cls-4" d="M346.7,493.87v-.64c3.92-.69,4.29-1.12,4.29-5.12v-21c0-4.24-.35-4.52-4.29-5.15v-.64h12.67V462c-4,.57-4.35.9-4.35,5.15v21c0,4,.34,4.4,4.35,5.13v.64Z" transform="translate(-32.45 -79.53)"/><path class="cls-4" d="M406.66,486.63c-.25,1.67-1.15,5.79-1.53,7.24h-23v-.64c4.39-.6,4.7-.93,4.7-5.1V467.31c0-4.34-.17-4.66-4-5.34v-.64h14.35c4.41,0,6,0,6.84-.1,0,1.78.21,5.31.38,6.89l-.72.11a17.32,17.32,0,0,0-1.66-4c-.94-1.35-1.63-1.48-4.58-1.48h-5.15c-1.3,0-1.42.16-1.42,1.49v11.68h6c3.51,0,3.9-.74,4.52-4.05H402v9.51h-.68c-.82-3.41-1.13-4-4.43-4h-6.05v11.65c0,3.39,1.24,3.58,4.1,3.59h4.6c2.5,0,3.2-.44,4.45-2.24a19.22,19.22,0,0,0,2-3.81Z" transform="translate(-32.45 -79.53)"/><path class="cls-4" d="M458.47,494.14c-.38,0-1.62,0-2,0-4.53-.25-5.64-.87-7.59-3.56-1.67-2.38-3.92-6.17-5.64-9.19-1.27-2.18-1.86-2.54-4.26-2.54h-1.86v9.39c0,3.92.39,4.44,4.34,5v.64H428.81v-.64c3.87-.63,4.29-1,4.29-5V466.91c0-3.92-.34-4.34-4.29-4.94v-.64H441c3.53,0,6.2.53,8,1.86a7.23,7.23,0,0,1,3,6.11c0,4.28-2.95,7-6.4,8.53.92,1.64,3.29,5.59,4.77,7.84a46.94,46.94,0,0,0,4.06,5.68,6.08,6.08,0,0,0,4.06,2.17ZM439.8,477.78c2.48,0,3.95-.12,5.31-1.14,1.9-1.39,2.54-3.39,2.54-6.37,0-5.52-3-7.91-7-7.91a6.15,6.15,0,0,0-3,.43c-.44.29-.6.72-.6,2.22v12.77Z" transform="translate(-32.45 -79.53)"/></svg>