<svg id="Layer_2" data-name="Layer 2" xmlns="http://www.w3.org/2000/svg" viewBox="0 0 534.8 743"><defs><style>.cls-1{opacity:0.19;}.cls-2{fill:#e0b187;}.cls-2,.cls-3,.cls-4,.cls-6{stroke:#2b2b2b;}.cls-2,.cls-3,.cls-4,.cls-6,.cls-8{stroke-miterlimit:10;}.cls-2,.cls-3,.cls-4,.cls-8{stroke-width:4px;}.cls-3{fill:#3d514e;}.cls-4,.cls-6{fill:#7f6240;}.cls-5{fill:#282828;}.cls-7{fill:#dd9287;}.cls-8{fill:none;stroke:#282828;}</style></defs><title>me-anim-wink</title><ellipse class="cls-1" cx="289.03" cy="716.87" rx="245.77" ry="26.13"/><path class="cls-2" d="M907.42,753.9l-2.83,18.37s-7.06,12.71,0,19.77-2.82,32.49-2.82,32.49-9.89,35.31-11.3,57.91c0,0,0,9.89-15.54,15.54s-19.77,12.71-19.77,12.71-8.48,11.3,9.88,8.47a114.14,114.14,0,0,1,33.9,0s28.25,2.83,16.95-15.53a28.11,28.11,0,0,1,2.83-11.3c2.82-5.65,18.36-41,18.36-41s10.59-26.13,9.18-43.08c0,0-1.41-9.88,4.24-12.71s5.65-28.25,5.65-28.25Z" transform="translate(-710.2 -203)"/><path class="cls-2" d="M1072.58,756.9l2.82,18.36s7.06,12.71,0,19.77,2.83,32.49,2.83,32.49,9.88,35.31,11.3,57.91c0,0,0,9.89,15.53,15.54s19.78,12.71,19.78,12.71,8.47,11.3-9.89,8.47a114.16,114.16,0,0,0-33.9,0s-28.25,2.83-17-15.53a28.19,28.19,0,0,0-2.82-11.3c-2.83-5.65-18.37-41-18.37-41s-10.59-26.13-9.18-43.08c0,0,1.42-9.89-4.23-12.72s-5.65-28.25-5.65-28.25Z" transform="translate(-710.2 -203)"/><g id="hand"><path class="cls-2" d="M1084.68,703.76l7.88,11.07a6.1,6.1,0,0,0,4.85,3.22c1.72.12,3.3-.41,2.81-3s-8.22-11.24-12.71-16.95" transform="translate(-710.2 -203)"/><path class="cls-2" d="M1087.51,699.52s7.77,7.77,14.83,12c3.88,2.33,4.78,0,4.8-2.64a13,13,0,0,0-2-6.73l-2.85-4.76c4.24-9.88-5.65-16.95-5.65-16.95,5.65,2.83,26.84-22.59,26.84-22.59s-19.07-23.31-38.14,1.41c0,0-21.19,14.12-19.77,33.9s22.6,29.66,22.6,29.66,5.65,2.82,4.23-5.65a20.92,20.92,0,0,0-7.06-12.71s8.48-9.89,0-21.19" transform="translate(-710.2 -203)"/></g><g id="hand-2" data-name="hand"><path class="cls-2" d="M889.06,700.86l-7.87,11.07a6.1,6.1,0,0,1-4.86,3.22c-1.71.12-3.3-.41-2.8-3s8.21-11.24,12.71-16.95" transform="translate(-710.2 -203)"/><path class="cls-2" d="M886.24,696.62s-7.77,7.77-14.83,12c-3.89,2.33-4.78,0-4.8-2.64a13.05,13.05,0,0,1,1.94-6.73l2.86-4.76c-4.24-9.88,5.65-17,5.65-17-5.65,2.83-26.84-22.59-26.84-22.59s19.07-23.31,38.14,1.41c0,0,21.18,14.12,19.77,33.9s-22.6,29.66-22.6,29.66-5.65,2.82-4.24-5.65a21,21,0,0,1,7.07-12.71s-8.48-9.89,0-21.19" transform="translate(-710.2 -203)"/></g><path class="cls-3" d="M937.79,592.18c0-14.13-28.25-32.49-28.25-32.49l2.82-9.89h0c115.83,17,154.49.48,154.49.48s52.44,31.3,72.21,51.08,0,39.55,0,39.55c-3.53,9.18-29,33.19-29,33.19l-21.19-19.78,5.65-7.06c9.89-18.36,1.54-22.34,1.54-22.34s-12.84-11.56-22.73-14.38-17-25.43-17-25.43,0,26.84,4.24,28.25c2.54.85,6.58,7.75,9.43,13.17a35.58,35.58,0,0,1,4,13.58c.37,4.31.75,9.83.75,14.21,0,8.48,4.23,9.89,4.23,9.89-3.3,3.3-4.33,8.23-6.08,11.29a42.33,42.33,0,0,0-3.8,8.49s1.41,15.53,4.23,22.6,9.89,14.12,9.89,14.12,4.24,11.3,4.24,22.6,14.12,24,14.12,24c-14.12,7.06-43.78,4.24-43.78,4.24-24,15.54-45.2,1.41-45.2,1.41-25.43,16.95-45.2,0-45.2,0-33.9,16.95-41,0-41,0s-12.72-12.71-21.19-5.65S871.4,773,871.4,773s19.78-28.25,17-53.67,16.95-41,16.95-41a38.36,38.36,0,0,1-9.89-12.72c-3.38-6.75,4.91-27.87,8.42-36.16a21.5,21.5,0,0,1,3.8-6L917,613" transform="translate(-710.2 -203)"/><path id="face" class="cls-2" d="M752.75,450.93s2.83-49.44,48-29.66c0,0,15.53-2.83,28.25,28.25,0,0,5.65,12.71,5.65-1.42s15.53-33.9,15.53-33.9,9.89-19.77,26.84-32.48,29.66-33.9,29.66-33.9S913.77,328,912.36,321s9.89,0,9.89,0,31.07,8.47,89,12.71,113,36.73,113,36.73S1137,388.78,1138.36,417h0s9.71-9,15.54,8.47c5.65,16.95,1.41,38.14,1.41,38.14s-1.41,21.19-9.89,24l-12.71,4.24s-11.3,43.79-73.45,60.74-156.08-3.54-156.08-3.54S841.74,538.5,834.68,499c0,0-15.54,28.25-46.62,7.06S752.75,450.93,752.75,450.93Z" transform="translate(-710.2 -203)"/><path id="hair" class="cls-4" d="M858.69,220.69s111.58-35.31,193.51,0,103.11,104.53,103.11,104.53,22.6,55.08,0,97.46c0,0,9.89,31.07,1.41,45.2,0,0,41,56.5,19.77,94.63s-48,11.3-48,11.3-7.06,12.72-15.54,12.72-50.85-35.32-50.85-35.32,52.27-8.47,70.63-59.32c0,0,36.72-21.19,17-73.45,0,0-8.48-7.06-11.3,2.83,0,0,2.82-35.32-29.66-53.68,0,0-38.14-28.25-93.23-31.07a477.45,477.45,0,0,1-101.7-16.95s1.42,39.55-29.66,60.73S833.26,458,833.26,458s-32.48-50.85-62.15-35.31-2.82,62.15-2.82,62.15,28.25,48,66.39,14.12c0,0,12,41.67,77,51.56l.7,2.12s0,5.65-7.06,4.23-28.25,7.07-28.25,7.07-22.6,22.6-49.44,22.6S733,589.35,733,589.35s-33.9-5.65-9.89-76.27c0,0,7.06-18.37,14.13-28.25S733,467.88,733,467.88s-43.79-55.09-4.24-138.43S813.49,232,813.49,232s17-5.65,32.49,2.83C846,234.82,851.63,224.93,858.69,220.69Z" transform="translate(-710.2 -203)"/><path class="cls-3" d="M916,614c4.24-1.41,4.56-28.87,4.56-28.87s-7.06,22.6-16.95,25.43-22.73,14.38-22.73,14.38-8.35,4,1.54,22.34l5.65,7.06-21.19,19.78s-25.42-24-29-33.19c0,0-19.78-19.78,0-39.55s72.21-51.08,72.21-51.08,36.12,17.86,151.94.91" transform="translate(-710.2 -203)"/><path class="cls-5" d="M974,420.29c0,1.81-10.75,3.28-24,3.28-11.47,0-21.07-1.1-23.45-2.57-.37-.23-.56-.47-.56-.71,0-1.82,10.75-3.29,24-3.29S974,418.47,974,420.29Z" transform="translate(-710.2 -203)"/><circle class="cls-5" cx="399.2" cy="211.91" r="24.01"/><path class="cls-5" d="M906,412.08s13.2,14.39,23,9.92c9.22-4.21,1-3,1-3S914.48,416.32,906,412.08Z" transform="translate(-710.2 -203)"/><path class="cls-5" d="M1137.65,412.08s-5.64,8.4-11.28,12-2.41-9.6-2.41-9.6S1132.82,415.68,1137.65,412.08Z" transform="translate(-710.2 -203)"/><path class="cls-6" d="M971,383.84s2.82,7.06-2.83,7.06a49,49,0,0,0-31.07-2.83c-17,4.24-5.65-4.23-5.65-4.23S944.14,375.36,971,383.84Z" transform="translate(-710.2 -203)"/><path class="cls-6" d="M1087.6,382.56s-2.63,7.06,2.62,7.06a42.68,42.68,0,0,1,28.87-2.83c15.74,4.24,5.25-4.23,5.25-4.23S1112.53,374.08,1087.6,382.56Z" transform="translate(-710.2 -203)"/><path class="cls-5" d="M987.69,488.49c10.44,6.65,43.87,24.26,73-1a10.17,10.17,0,0,1,4.53-2.38c2.57-.54,5,.24-.3,8.18-8.48,12.71-31.07,15.54-31.07,15.54s-32.49,4.24-55.09-15.54c-14.83-13-7.76-12-1.15-9.73A46.43,46.43,0,0,1,987.69,488.49Z" transform="translate(-710.2 -203)"/><ellipse class="cls-7" cx="217" cy="253.58" rx="21.19" ry="6.36"/><ellipse class="cls-7" cx="396.38" cy="253.58" rx="21.19" ry="6.36"/><path class="cls-8" d="M1031.76,433.27s-2.14,12.75,7.36,15.34c15.64,4.27-.92,9.38-.92,9.38" transform="translate(-710.2 -203)"/><path class="cls-8" d="M846,234.82s41,21.19,67.79,83.33" transform="translate(-710.2 -203)"/></svg>