<?xml version="1.0" encoding="utf-8"?>
<!-- Generator: Adobe Illustrator 24.0.1, SVG Export Plug-In . SVG Version: 6.00 Build 0)  -->
<svg version="1.1" id="Layer_1" xmlns="http://www.w3.org/2000/svg" xmlns:xlink="http://www.w3.org/1999/xlink" x="0px" y="0px"
	 viewBox="0 0 1920 1080" style="enable-background:new 0 0 1920 1080;" xml:space="preserve">
<style type="text/css">
	.st0{fill:#FFFFFF;}
	.st1{fill:#FFFFFF;stroke:#000000;stroke-width:6;stroke-miterlimit:10;}
</style>
<g>
	<path class="st0" d="M1012.6,660c-21.3,0-38.6-17.3-38.6-38.6s17.3-38.6,38.6-38.6s38.6,17.3,38.6,38.6S1033.9,660,1012.6,660z"/>
	<path d="M1012.6,585.8c19.6,0,35.6,16,35.6,35.6c0,19.6-16,35.6-35.6,35.6S977,641,977,621.4C977,601.7,993,585.8,1012.6,585.8
		 M1012.6,579.8c-23,0-41.6,18.6-41.6,41.6s18.6,41.6,41.6,41.6c23,0,41.6-18.6,41.6-41.6S1035.6,579.8,1012.6,579.8L1012.6,579.8z"
		/>
</g>
<g>
	<circle class="st0" cx="1097.2" cy="536.8" r="51.1"/>
	<path d="M1097.2,488.7c26.5,0,48.1,21.6,48.1,48.1c0,26.5-21.6,48.1-48.1,48.1s-48.1-21.6-48.1-48.1
		C1049.1,510.2,1070.7,488.7,1097.2,488.7 M1097.2,482.7c-29.9,0-54.1,24.2-54.1,54.1c0,29.9,24.2,54.1,54.1,54.1
		s54.1-24.2,54.1-54.1C1151.3,506.9,1127.1,482.7,1097.2,482.7L1097.2,482.7z"/>
</g>
<path class="st1" d="M1423.4,261.6c0,0,74.3-30.7,71.9,65.7c0,0,54.1,20.8,15.3,62.4c0,0,22.2,51.3-27.7,62.4
	c0,0-12.4,49.4-64.2,30.5c0,0-37.6,51.8-96.4,4.7c0,0-61.2,44.7-94.1-9.4c0,0-82.3,28.2-80-32.9c0,0-72.9,14.1-68.2-65.9
	c0,0-42.3-18.8,0-58.8c0,0-42-56.8,20.1-73.1c0,0,8.1-37.5,41-23.4c0,0,30.6-42.3,58.8-2.4c0,0,51.8-47,80,4.7
	c0,0,49.4-42.3,77.6,11.8C1357.6,238,1411.7,209.8,1423.4,261.6z"/>
<g>
	<g>
		<path d="M1187.7,372.7h-5l-11.1,29.2h5.8l2.7-7.3h10.2l2.7,7.3h5.8L1187.7,372.7z M1181,390.6l4.2-11.5l4,11.5H1181z"/>
	</g>
</g>
<g>
	<g>
		<g>
			<rect x="1201.5" y="380.4" width="5.5" height="21.5"/>
			<rect x="1201.5" y="371.9" width="5.5" height="5.5"/>
		</g>
	</g>
</g>
<g>
	<g>
		<path d="M1146.3,341.6v87.7h87.7v-87.7H1146.3z M1228.9,424.2h-77.4v-77.4h77.4V424.2z"/>
	</g>
</g>
<g>
	<g>
		<path d="M1252,261.2V361h99.8v-99.8H1252z M1346,355.2h-88.1V267h88.1V355.2z"/>
	</g>
</g>
<g>
	<g>
		<path d="M1293.6,296.6h-14.1v33.2h6.5v-11.1h7.9c5.8,0,10.3-5,10.3-11C1304.1,302.5,1300,296.6,1293.6,296.6z M1293.4,313h-7.5
			v-10.8h7.2c2.7,0,4.4,2.6,4.4,5.4C1297.6,310.9,1295.7,313,1293.4,313z"/>
	</g>
</g>
<g>
	<g>
		<path d="M1317.7,315.1c-0.9-0.2-4.8-0.9-4.8-3.1c0-1.8,1.5-2.8,3.7-2.8c3.1,0,5.9,1.8,7.1,2.7l2.5-3.8c-1.3-1.2-4.2-3.4-9.6-3.4
			c-5.1,0-9.6,2.9-9.6,8.1c0,5.4,7.2,6.4,8.7,6.8c1.9,0.5,5.4,1.2,5.4,3.3c0,1.7-1.6,2.7-4,2.7c-3.7,0-7.1-2.2-8.6-3.2l-2.3,3.9
			c1.4,1.2,5.4,3.8,11.1,3.8c3.1,0,9.9-1,9.9-7.8C1327.2,316.7,1319.4,315.6,1317.7,315.1z"/>
	</g>
</g>
<g>
	<g>
		<path d="M1380.7,356.5V422h65.5v-65.5H1380.7z M1442.4,418.2h-57.9v-57.9h57.9V418.2z"/>
	</g>
</g>
<g>
	<g>
		<path d="M1406.6,379.7h-3.7l-8.3,21.8h4.4l2-5.4h7.6l2,5.4h4.4L1406.6,379.7z M1401.6,393.1l3.1-8.6l3,8.6H1401.6z"/>
	</g>
</g>
<g>
	<g>
		<path d="M1432.3,393.4c0-5.6-4.3-8.3-8.4-8.3c-5.7,0-8.5,4.4-8.5,8.4c0,4.5,3.3,8.3,8.5,8.3c4.9,0,6.9-3,7.5-4.2l-3.5-1
			c-0.3,0.7-1.5,2.2-3.8,2.2c-3.5,0-4.2-3.4-4.3-4h12.4C1432.3,394.6,1432.3,393.7,1432.3,393.4z M1419.7,392.1c0.2-2.4,2-4,4.1-4
			c2.1,0,4,1.4,4.2,4H1419.7z"/>
	</g>
</g>
<g>
	<g>
		<rect x="1163" y="278.6" width="3.2" height="16.5"/>
	</g>
</g>
<g>
	<g>
		<path d="M1147,261v49.6h49.6V261H1147z M1193.8,307.7H1150v-43.8h43.8V307.7z"/>
	</g>
</g>
<g>
	<g>
		<path d="M1181.1,291.5v-13.4h-3.1v6.9c-0.4-0.7-1.7-2.4-4.1-2.4c-2.9,0-5.4,2.5-5.4,6.3c0,3.3,2.2,6.3,5.8,6.3
			c2.4,0,3.8-1.6,4.2-2.4c0,0-0.2,2.3,2,2.3c0.3,0,0.8-0.1,1.3-0.2v-2.7C1181.6,292.5,1181.1,291.9,1181.1,291.5z M1178,290.7
			c-0.1,0.3-1,2-3,2c-2.1,0-3.4-1.8-3.4-3.6c0-1.6,1.1-3.7,3.2-3.7c1.9,0,3,2,3.1,2.4V290.7L1178,290.7z"/>
	</g>
</g>
<g>
	<g>
		<path d="M1256.3,382v95h95v-95H1256.3z M1345.7,471.4h-83.9v-83.9h83.9V471.4z"/>
	</g>
</g>
<g>
	<g>
		<path d="M1298.8,415.7h-13.4v31.6h6.1v-10.6h7.5c5.5,0,9.8-4.8,9.8-10.5C1308.9,421.3,1305,415.7,1298.8,415.7z M1298.7,431.3
			h-7.1v-10.2h6.9c2.6,0,4.2,2.4,4.2,5.1C1302.7,429.3,1300.9,431.3,1298.7,431.3z"/>
	</g>
</g>
<g>
	<g>
		<path d="M1326.5,429.1v-5.4c-5.4-0.6-8,4.5-8.4,5.3v-5h-5.5v23.3h6v-14.1C1319.2,431.9,1321.2,429.1,1326.5,429.1L1326.5,429.1z"
			/>
	</g>
</g>
</svg>
